<?xml version="1.0" encoding="UTF-8" standalone="no"?>
<!-- Created with Inkscape (http://www.inkscape.org/) -->

<svg
   xmlns:dc="http://purl.org/dc/elements/1.1/"
   xmlns:cc="http://creativecommons.org/ns#"
   xmlns:rdf="http://www.w3.org/1999/02/22-rdf-syntax-ns#"
   xmlns:svg="http://www.w3.org/2000/svg"
   xmlns="http://www.w3.org/2000/svg"
   xmlns:sodipodi="http://sodipodi.sourceforge.net/DTD/sodipodi-0.dtd"
   xmlns:inkscape="http://www.inkscape.org/namespaces/inkscape"
   version="1.1"
   id="svg815"
   xml:space="preserve"
   width="880"
   height="880"
   viewBox="0 0 880 880"
   sodipodi:docname="cross-eye-silhouette-freesvg.org.svg"
   inkscape:version="0.92.4 (5da689c313, 2019-01-14)"><metadata
     id="metadata821"><rdf:RDF><cc:Work
         rdf:about=""><dc:format>image/svg+xml</dc:format><dc:type
           rdf:resource="http://purl.org/dc/dcmitype/StillImage" /><dc:title></dc:title></cc:Work></rdf:RDF></metadata><defs
     id="defs819"><clipPath
       clipPathUnits="userSpaceOnUse"
       id="clipPath831"><path
         d="M 0,660 H 660 V 0 H 0 Z"
         id="path829"
         inkscape:connector-curvature="0" /></clipPath></defs><sodipodi:namedview
     pagecolor="#ffffff"
     bordercolor="#666666"
     borderopacity="1"
     objecttolerance="10"
     gridtolerance="10"
     guidetolerance="10"
     inkscape:pageopacity="0"
     inkscape:pageshadow="2"
     inkscape:window-width="1920"
     inkscape:window-height="1018"
     id="namedview817"
     showgrid="false"
     inkscape:zoom="0.96477273"
     inkscape:cx="440"
     inkscape:cy="406.72934"
     inkscape:window-x="-8"
     inkscape:window-y="-8"
     inkscape:window-maximized="1"
     inkscape:current-layer="g823" /><g
     id="g823"
     inkscape:groupmode="layer"
     inkscape:label="cross-eye-silhouette-freesvg.org"
     transform="matrix(1.3333333,0,0,-1.3333333,0,880)"><g
       id="g1068"><path
         inkscape:connector-curvature="0"
         id="path833"
         style="fill:#231f20;fill-opacity:1;fill-rule:nonzero;stroke:none"
         d="m 31.141,-25.146 h 3.677 c 1.135,0 2.026,0.106 2.672,0.318 0.646,0.212 1.161,0.51 1.545,0.893 0.54,0.541 0.961,1.269 1.262,2.182 0.302,0.914 0.453,2.022 0.453,3.322 0,1.804 -0.295,3.19 -0.887,4.159 -0.591,0.967 -1.31,1.617 -2.155,1.946 -0.612,0.235 -1.594,0.352 -2.949,0.352 h -3.618 z m -2.282,-2.031 v 17.235 h 5.932 c 1.338,0 2.36,-0.082 3.065,-0.247 0.986,-0.228 1.828,-0.639 2.525,-1.235 0.908,-0.767 1.587,-1.749 2.037,-2.944 0.451,-1.195 0.676,-2.562 0.676,-4.098 0,-1.308 -0.153,-2.469 -0.458,-3.479 -0.305,-1.011 -0.697,-1.848 -1.175,-2.51 -0.477,-0.663 -1,-1.184 -1.568,-1.564 -0.567,-0.38 -1.252,-0.668 -2.055,-0.864 -0.802,-0.196 -1.724,-0.294 -2.766,-0.294 z" /><path
         inkscape:connector-curvature="0"
         id="path835"
         style="fill:#231f20;fill-opacity:1;fill-rule:nonzero;stroke:none"
         d="m 47.546,-19.739 h 6.969 c -0.094,1.052 -0.36,1.842 -0.799,2.368 -0.674,0.817 -1.548,1.225 -2.621,1.225 -0.971,0 -1.788,-0.326 -2.45,-0.978 -0.662,-0.651 -1.028,-1.523 -1.099,-2.615 m 6.946,-3.407 2.187,-0.281 c -0.345,-1.277 -0.983,-2.268 -1.915,-2.973 -0.931,-0.705 -2.122,-1.058 -3.571,-1.058 -1.824,0 -3.272,0.562 -4.34,1.687 -1.069,1.124 -1.603,2.701 -1.603,4.731 0,2.1 0.54,3.729 1.621,4.889 1.08,1.16 2.482,1.74 4.205,1.74 1.668,0 3.03,-0.568 4.088,-1.704 1.057,-1.136 1.586,-2.735 1.586,-4.794 0,-0.126 -0.004,-0.315 -0.012,-0.565 h -9.317 c 0.079,-1.373 0.467,-2.425 1.165,-3.155 0.698,-0.729 1.569,-1.095 2.612,-1.095 0.776,0 1.439,0.205 1.988,0.616 0.549,0.41 0.984,1.064 1.306,1.962" /><path
         inkscape:connector-curvature="0"
         id="path837"
         style="fill:#231f20;fill-opacity:1;fill-rule:nonzero;stroke:none"
         d="m 58.489,-23.442 2.094,0.328 c 0.118,-0.842 0.445,-1.489 0.983,-1.937 0.538,-0.448 1.289,-0.673 2.254,-0.673 0.973,0 1.695,0.199 2.166,0.595 0.471,0.397 0.706,0.861 0.706,1.396 0,0.479 -0.207,0.855 -0.62,1.13 -0.289,0.189 -1.01,0.428 -2.163,0.719 -1.554,0.392 -2.631,0.731 -3.231,1.016 -0.6,0.286 -1.055,0.681 -1.365,1.187 -0.31,0.505 -0.464,1.063 -0.464,1.674 0,0.557 0.127,1.071 0.382,1.545 0.254,0.475 0.602,0.868 1.04,1.182 0.329,0.242 0.778,0.448 1.347,0.616 0.568,0.169 1.177,0.253 1.828,0.253 0.979,0 1.84,-0.141 2.58,-0.423 0.741,-0.282 1.288,-0.664 1.641,-1.145 0.352,-0.482 0.595,-1.125 0.729,-1.932 l -2.063,-0.281 c -0.094,0.642 -0.367,1.144 -0.818,1.505 -0.451,0.361 -1.089,0.541 -1.912,0.541 -0.974,0 -1.668,-0.161 -2.084,-0.483 -0.416,-0.321 -0.623,-0.698 -0.623,-1.13 0,-0.275 0.086,-0.523 0.259,-0.742 0.172,-0.228 0.443,-0.417 0.811,-0.566 0.212,-0.079 0.836,-0.259 1.872,-0.541 1.498,-0.401 2.543,-0.728 3.133,-0.982 0.59,-0.255 1.053,-0.625 1.389,-1.11 0.336,-0.487 0.504,-1.089 0.504,-1.81 0,-0.705 -0.206,-1.369 -0.617,-1.992 -0.412,-0.622 -1.006,-1.104 -1.783,-1.445 -0.776,-0.341 -1.654,-0.511 -2.634,-0.511 -1.623,0 -2.861,0.338 -3.711,1.013 -0.852,0.674 -1.395,1.675 -1.63,3.003" /><path
         inkscape:connector-curvature="0"
         id="path839"
         style="fill:#231f20;fill-opacity:1;fill-rule:nonzero;stroke:none"
         d="m 71.378,-14.692 h 2.109 v -12.484 h -2.109 z m 0,4.75 h 2.109 v -2.438 h -2.109 z" /><path
         inkscape:connector-curvature="0"
         id="path841"
         style="fill:#231f20;fill-opacity:1;fill-rule:nonzero;stroke:none"
         d="m 78.078,-20.712 c 0,-1.639 0.325,-2.834 0.974,-3.586 0.65,-0.753 1.464,-1.129 2.442,-1.129 0.97,0 1.784,0.374 2.442,1.123 0.657,0.748 0.985,1.922 0.985,3.522 0,1.528 -0.338,2.68 -1.015,3.457 -0.677,0.775 -1.492,1.164 -2.448,1.164 -0.938,0 -1.737,-0.383 -2.394,-1.147 -0.657,-0.764 -0.986,-1.899 -0.986,-3.404 m -1.75,-7.496 2.062,-0.313 c 0.086,-0.632 0.325,-1.093 0.716,-1.382 0.524,-0.391 1.24,-0.586 2.147,-0.586 0.978,0 1.733,0.196 2.265,0.588 0.531,0.392 0.892,0.941 1.079,1.647 0.11,0.432 0.16,1.337 0.153,2.718 -0.924,-1.094 -2.075,-1.641 -3.453,-1.641 -1.715,0 -3.043,0.619 -3.982,1.858 -0.94,1.238 -1.409,2.722 -1.409,4.455 0,1.191 0.216,2.29 0.646,3.297 0.431,1.006 1.056,1.785 1.874,2.333 0.819,0.548 1.78,0.823 2.885,0.823 1.472,0 2.687,-0.594 3.642,-1.781 v 1.5 h 1.953 v -10.789 c 0,-1.944 -0.198,-3.321 -0.593,-4.131 -0.396,-0.811 -1.023,-1.451 -1.881,-1.922 -0.858,-0.47 -1.914,-0.705 -3.168,-0.705 -1.488,0 -2.691,0.335 -3.608,1.005 -0.917,0.67 -1.36,1.678 -1.328,3.026" /><path
         inkscape:connector-curvature="0"
         id="path843"
         style="fill:#231f20;fill-opacity:1;fill-rule:nonzero;stroke:none"
         d="m 90.104,-27.177 v 12.485 h 1.89 v -1.775 c 0.916,1.37 2.24,2.056 3.97,2.056 0.752,0 1.444,-0.135 2.074,-0.405 0.63,-0.271 1.102,-0.625 1.415,-1.065 0.313,-0.438 0.533,-0.96 0.658,-1.563 0.078,-0.392 0.118,-1.077 0.118,-2.057 v -7.676 h -2.11 v 7.598 c 0,0.862 -0.082,1.507 -0.246,1.934 -0.165,0.427 -0.456,0.769 -0.875,1.023 -0.419,0.256 -0.911,0.383 -1.474,0.383 -0.9,0 -1.677,-0.286 -2.331,-0.859 -0.653,-0.572 -0.98,-1.658 -0.98,-3.257 v -6.822 z" /><path
         inkscape:connector-curvature="0"
         id="path845"
         style="fill:#231f20;fill-opacity:1;fill-rule:nonzero;stroke:none"
         d="m 105.062,-19.739 h 6.969 c -0.094,1.052 -0.361,1.842 -0.799,2.368 -0.674,0.817 -1.548,1.225 -2.621,1.225 -0.972,0 -1.788,-0.326 -2.45,-0.978 -0.662,-0.651 -1.029,-1.523 -1.099,-2.615 m 6.945,-3.407 2.188,-0.281 c -0.345,-1.277 -0.984,-2.268 -1.915,-2.973 -0.932,-0.705 -2.122,-1.058 -3.571,-1.058 -1.825,0 -3.272,0.562 -4.34,1.687 -1.07,1.124 -1.604,2.701 -1.604,4.731 0,2.1 0.54,3.729 1.621,4.889 1.081,1.16 2.483,1.74 4.205,1.74 1.668,0 3.031,-0.568 4.088,-1.704 1.057,-1.136 1.586,-2.735 1.586,-4.794 0,-0.126 -0.004,-0.315 -0.012,-0.565 h -9.316 c 0.078,-1.373 0.467,-2.425 1.165,-3.155 0.697,-0.729 1.568,-1.095 2.611,-1.095 0.777,0 1.439,0.205 1.989,0.616 0.548,0.41 0.984,1.064 1.305,1.962" /><path
         inkscape:connector-curvature="0"
         id="path847"
         style="fill:#231f20;fill-opacity:1;fill-rule:nonzero;stroke:none"
         d="m 118.255,-20.948 c 0,-1.6 0.337,-2.795 1.01,-3.588 0.674,-0.791 1.469,-1.188 2.385,-1.188 0.924,0 1.709,0.378 2.355,1.135 0.646,0.757 0.969,1.911 0.969,3.464 0,1.71 -0.329,2.964 -0.987,3.765 -0.657,0.798 -1.468,1.199 -2.431,1.199 -0.94,0 -1.724,-0.385 -2.355,-1.152 -0.63,-0.77 -0.946,-1.981 -0.946,-3.635 m 6.688,-6.229 v 1.571 c -0.791,-1.235 -1.955,-1.852 -3.49,-1.852 -0.995,0 -1.91,0.274 -2.744,0.822 -0.834,0.549 -1.48,1.315 -1.938,2.299 -0.458,0.983 -0.688,2.113 -0.688,3.391 0,1.246 0.208,2.376 0.624,3.39 0.415,1.015 1.037,1.793 1.868,2.334 0.83,0.54 1.758,0.811 2.784,0.811 0.752,0 1.422,-0.158 2.01,-0.476 0.587,-0.317 1.065,-0.73 1.433,-1.239 v 6.184 h 2.11 v -17.235 z" /><path
         inkscape:connector-curvature="0"
         id="path849"
         style="fill:#231f20;fill-opacity:1;fill-rule:nonzero;stroke:none"
         d="m 144.882,-20.911 c -0.767,-0.314 -1.918,-0.58 -3.451,-0.799 -0.869,-0.126 -1.484,-0.268 -1.844,-0.424 -0.36,-0.156 -0.637,-0.386 -0.833,-0.687 -0.196,-0.302 -0.294,-0.637 -0.294,-1.006 0,-0.565 0.213,-1.034 0.639,-1.41 0.426,-0.377 1.049,-0.565 1.869,-0.565 0.813,0 1.535,0.178 2.168,0.535 0.633,0.357 1.098,0.844 1.395,1.463 0.226,0.479 0.34,1.184 0.34,2.117 z m 0.172,-4.719 c -0.786,-0.668 -1.541,-1.141 -2.263,-1.415 -0.723,-0.275 -1.499,-0.413 -2.327,-0.413 -1.367,0 -2.418,0.335 -3.152,1.005 -0.734,0.67 -1.102,1.526 -1.102,2.567 0,0.612 0.139,1.17 0.416,1.675 0.278,0.506 0.641,0.911 1.09,1.217 0.45,0.306 0.955,0.536 1.518,0.693 0.414,0.11 1.039,0.216 1.875,0.318 1.703,0.203 2.957,0.446 3.762,0.728 0.007,0.29 0.011,0.475 0.011,0.553 0,0.863 -0.199,1.471 -0.598,1.823 -0.539,0.479 -1.341,0.718 -2.404,0.718 -0.992,0 -1.725,-0.175 -2.198,-0.524 -0.474,-0.348 -0.823,-0.965 -1.05,-1.851 l -2.062,0.281 c 0.188,0.886 0.497,1.601 0.928,2.146 0.43,0.544 1.052,0.963 1.867,1.256 0.814,0.295 1.758,0.442 2.831,0.442 1.064,0 1.929,-0.125 2.596,-0.376 0.665,-0.251 1.154,-0.567 1.467,-0.946 0.314,-0.38 0.533,-0.861 0.658,-1.44 0.071,-0.361 0.106,-1.012 0.106,-1.951 v -2.822 c 0,-1.967 0.045,-3.211 0.136,-3.733 0.09,-0.52 0.268,-1.019 0.536,-1.498 h -2.203 c -0.227,0.442 -0.373,0.957 -0.438,1.547" /><path
         inkscape:connector-curvature="0"
         id="path851"
         style="fill:#231f20;fill-opacity:1;fill-rule:nonzero;stroke:none"
         d="m 150.31,-27.177 v 12.485 h 1.89 v -1.775 c 0.916,1.37 2.24,2.056 3.97,2.056 0.752,0 1.444,-0.135 2.074,-0.405 0.631,-0.271 1.102,-0.625 1.415,-1.065 0.313,-0.438 0.533,-0.96 0.658,-1.563 0.078,-0.392 0.118,-1.077 0.118,-2.057 v -7.676 h -2.11 v 7.598 c 0,0.862 -0.082,1.507 -0.246,1.934 -0.165,0.427 -0.456,0.769 -0.875,1.023 -0.419,0.256 -0.911,0.383 -1.474,0.383 -0.9,0 -1.677,-0.286 -2.331,-0.859 -0.653,-0.572 -0.98,-1.658 -0.98,-3.257 v -6.822 z" /><path
         inkscape:connector-curvature="0"
         id="path853"
         style="fill:#231f20;fill-opacity:1;fill-rule:nonzero;stroke:none"
         d="m 165.081,-20.948 c 0,-1.6 0.336,-2.795 1.009,-3.588 0.674,-0.791 1.469,-1.188 2.385,-1.188 0.924,0 1.709,0.378 2.356,1.135 0.645,0.757 0.968,1.911 0.968,3.464 0,1.71 -0.329,2.964 -0.986,3.765 -0.658,0.798 -1.469,1.199 -2.432,1.199 -0.94,0 -1.724,-0.385 -2.355,-1.152 -0.63,-0.77 -0.945,-1.981 -0.945,-3.635 m 6.687,-6.229 v 1.571 c -0.791,-1.235 -1.955,-1.852 -3.49,-1.852 -0.994,0 -1.909,0.274 -2.743,0.822 -0.834,0.549 -1.481,1.315 -1.939,2.299 -0.458,0.983 -0.687,2.113 -0.687,3.391 0,1.246 0.207,2.376 0.623,3.39 0.415,1.015 1.037,1.793 1.868,2.334 0.83,0.54 1.758,0.811 2.785,0.811 0.752,0 1.421,-0.158 2.009,-0.476 0.587,-0.317 1.065,-0.73 1.433,-1.239 v 6.184 h 2.11 v -17.235 z" /><path
         inkscape:connector-curvature="0"
         id="path855"
         style="fill:#231f20;fill-opacity:1;fill-rule:nonzero;stroke:none"
         d="m 183.724,-27.177 v 12.485 h 1.89 v -1.895 c 0.487,0.886 0.937,1.471 1.349,1.752 0.413,0.283 0.867,0.424 1.362,0.424 0.715,0 1.441,-0.228 2.18,-0.682 l -0.74,-1.957 c -0.516,0.301 -1.033,0.451 -1.549,0.451 -0.461,0 -0.876,-0.138 -1.243,-0.417 -0.368,-0.278 -0.63,-0.664 -0.787,-1.158 -0.235,-0.752 -0.353,-1.575 -0.353,-2.468 v -6.535 z" /><path
         inkscape:connector-curvature="0"
         id="path857"
         style="fill:#231f20;fill-opacity:1;fill-rule:nonzero;stroke:none"
         d="m 193.345,-19.739 h 6.968 c -0.094,1.052 -0.36,1.842 -0.799,2.368 -0.674,0.817 -1.547,1.225 -2.62,1.225 -0.972,0 -1.789,-0.326 -2.451,-0.978 -0.662,-0.651 -1.028,-1.523 -1.098,-2.615 m 6.945,-3.407 2.187,-0.281 c -0.345,-1.277 -0.982,-2.268 -1.914,-2.973 -0.933,-0.705 -2.123,-1.058 -3.571,-1.058 -1.825,0 -3.272,0.562 -4.341,1.687 -1.068,1.124 -1.603,2.701 -1.603,4.731 0,2.1 0.54,3.729 1.621,4.889 1.081,1.16 2.482,1.74 4.206,1.74 1.667,0 3.03,-0.568 4.087,-1.704 1.057,-1.136 1.586,-2.735 1.586,-4.794 0,-0.126 -0.004,-0.315 -0.012,-0.565 h -9.316 c 0.078,-1.373 0.466,-2.425 1.164,-3.155 0.699,-0.729 1.569,-1.095 2.612,-1.095 0.776,0 1.439,0.205 1.988,0.616 0.549,0.41 0.984,1.064 1.306,1.962" /><path
         inkscape:connector-curvature="0"
         id="path859"
         style="fill:#231f20;fill-opacity:1;fill-rule:nonzero;stroke:none"
         d="m 205.1,-9.942 h 2.109 V -27.176 H 205.1 Z" /><path
         inkscape:connector-curvature="0"
         id="path861"
         style="fill:#231f20;fill-opacity:1;fill-rule:nonzero;stroke:none"
         d="m 212.07,-19.739 h 6.969 c -0.094,1.052 -0.361,1.842 -0.799,2.368 -0.674,0.817 -1.547,1.225 -2.62,1.225 -0.972,0 -1.789,-0.326 -2.451,-0.978 -0.662,-0.651 -1.028,-1.523 -1.099,-2.615 m 6.946,-3.407 2.187,-0.281 c -0.345,-1.277 -0.983,-2.268 -1.915,-2.973 -0.932,-0.705 -2.122,-1.058 -3.571,-1.058 -1.824,0 -3.271,0.562 -4.341,1.687 -1.068,1.124 -1.603,2.701 -1.603,4.731 0,2.1 0.541,3.729 1.622,4.889 1.08,1.16 2.482,1.74 4.205,1.74 1.668,0 3.03,-0.568 4.088,-1.704 1.057,-1.136 1.585,-2.735 1.585,-4.794 0,-0.126 -0.003,-0.315 -0.011,-0.565 h -9.317 c 0.079,-1.373 0.467,-2.425 1.165,-3.155 0.698,-0.729 1.568,-1.095 2.612,-1.095 0.776,0 1.439,0.205 1.987,0.616 0.549,0.41 0.985,1.064 1.307,1.962" /><path
         inkscape:connector-curvature="0"
         id="path863"
         style="fill:#231f20;fill-opacity:1;fill-rule:nonzero;stroke:none"
         d="m 231.826,-20.911 c -0.767,-0.314 -1.918,-0.58 -3.452,-0.799 -0.869,-0.126 -1.483,-0.268 -1.843,-0.424 -0.361,-0.156 -0.638,-0.386 -0.834,-0.687 -0.196,-0.302 -0.293,-0.637 -0.293,-1.006 0,-0.565 0.213,-1.034 0.638,-1.41 0.426,-0.377 1.049,-0.565 1.87,-0.565 0.812,0 1.535,0.178 2.168,0.535 0.632,0.357 1.097,0.844 1.394,1.463 0.227,0.479 0.34,1.184 0.34,2.117 z m 0.172,-4.719 c -0.787,-0.668 -1.541,-1.141 -2.264,-1.415 -0.723,-0.275 -1.498,-0.413 -2.326,-0.413 -1.367,0 -2.418,0.335 -3.153,1.005 -0.734,0.67 -1.101,1.526 -1.101,2.567 0,0.612 0.138,1.17 0.416,1.675 0.277,0.506 0.64,0.911 1.09,1.217 0.449,0.306 0.955,0.536 1.517,0.693 0.414,0.11 1.039,0.216 1.875,0.318 1.703,0.203 2.957,0.446 3.762,0.728 0.008,0.29 0.012,0.475 0.012,0.553 0,0.863 -0.2,1.471 -0.598,1.823 -0.54,0.479 -1.341,0.718 -2.404,0.718 -0.993,0 -1.726,-0.175 -2.199,-0.524 -0.473,-0.348 -0.823,-0.965 -1.049,-1.851 l -2.063,0.281 c 0.188,0.886 0.497,1.601 0.928,2.146 0.431,0.544 1.053,0.963 1.867,1.256 0.815,0.295 1.758,0.442 2.831,0.442 1.065,0 1.93,-0.125 2.596,-0.376 0.665,-0.251 1.155,-0.567 1.468,-0.946 0.313,-0.38 0.532,-0.861 0.658,-1.44 0.07,-0.361 0.105,-1.012 0.105,-1.951 v -2.822 c 0,-1.967 0.045,-3.211 0.136,-3.733 0.09,-0.52 0.269,-1.019 0.536,-1.498 h -2.203 c -0.227,0.442 -0.373,0.957 -0.437,1.547" /><path
         inkscape:connector-curvature="0"
         id="path865"
         style="fill:#231f20;fill-opacity:1;fill-rule:nonzero;stroke:none"
         d="m 236.394,-23.442 2.093,0.328 c 0.118,-0.842 0.446,-1.489 0.983,-1.937 0.538,-0.448 1.289,-0.673 2.254,-0.673 0.974,0 1.695,0.199 2.166,0.595 0.471,0.397 0.707,0.861 0.707,1.396 0,0.479 -0.207,0.855 -0.621,1.13 -0.289,0.189 -1.01,0.428 -2.163,0.719 -1.554,0.392 -2.631,0.731 -3.23,1.016 -0.601,0.286 -1.056,0.681 -1.366,1.187 -0.309,0.505 -0.464,1.063 -0.464,1.674 0,0.557 0.127,1.071 0.382,1.545 0.255,0.475 0.602,0.868 1.04,1.182 0.329,0.242 0.779,0.448 1.347,0.616 0.568,0.169 1.178,0.253 1.828,0.253 0.98,0 1.84,-0.141 2.581,-0.423 0.74,-0.282 1.287,-0.664 1.64,-1.145 0.352,-0.482 0.596,-1.125 0.729,-1.932 l -2.063,-0.281 c -0.094,0.642 -0.366,1.144 -0.818,1.505 -0.451,0.361 -1.088,0.541 -1.912,0.541 -0.973,0 -1.668,-0.161 -2.084,-0.483 -0.416,-0.321 -0.623,-0.698 -0.623,-1.13 0,-0.275 0.086,-0.523 0.259,-0.742 0.172,-0.228 0.443,-0.417 0.812,-0.566 0.212,-0.079 0.836,-0.259 1.871,-0.541 1.499,-0.401 2.543,-0.728 3.133,-0.982 0.59,-0.255 1.053,-0.625 1.389,-1.11 0.336,-0.487 0.505,-1.089 0.505,-1.81 0,-0.705 -0.206,-1.369 -0.618,-1.992 -0.412,-0.622 -1.006,-1.104 -1.782,-1.445 -0.777,-0.341 -1.655,-0.511 -2.635,-0.511 -1.623,0 -2.86,0.338 -3.711,1.013 -0.852,0.674 -1.395,1.675 -1.629,3.003" /><path
         inkscape:connector-curvature="0"
         id="path867"
         style="fill:#231f20;fill-opacity:1;fill-rule:nonzero;stroke:none"
         d="m 250.861,-19.739 h 6.969 c -0.094,1.052 -0.361,1.842 -0.799,2.368 -0.674,0.817 -1.548,1.225 -2.621,1.225 -0.972,0 -1.788,-0.326 -2.451,-0.978 -0.662,-0.651 -1.028,-1.523 -1.098,-2.615 m 6.945,-3.407 2.188,-0.281 c -0.345,-1.277 -0.984,-2.268 -1.915,-2.973 -0.932,-0.705 -2.122,-1.058 -3.572,-1.058 -1.824,0 -3.271,0.562 -4.34,1.687 -1.069,1.124 -1.603,2.701 -1.603,4.731 0,2.1 0.54,3.729 1.621,4.889 1.08,1.16 2.482,1.74 4.205,1.74 1.668,0 3.031,-0.568 4.088,-1.704 1.057,-1.136 1.586,-2.735 1.586,-4.794 0,-0.126 -0.004,-0.315 -0.012,-0.565 h -9.316 c 0.078,-1.373 0.467,-2.425 1.164,-3.155 0.698,-0.729 1.569,-1.095 2.612,-1.095 0.777,0 1.439,0.205 1.988,0.616 0.549,0.41 0.984,1.064 1.306,1.962" /><path
         inkscape:connector-curvature="0"
         id="path869"
         style="fill:#231f20;fill-opacity:1;fill-rule:nonzero;stroke:none"
         d="m 264.053,-20.948 c 0,-1.6 0.337,-2.795 1.01,-3.588 0.674,-0.791 1.469,-1.188 2.385,-1.188 0.924,0 1.709,0.378 2.355,1.135 0.646,0.757 0.969,1.911 0.969,3.464 0,1.71 -0.329,2.964 -0.987,3.765 -0.658,0.798 -1.468,1.199 -2.431,1.199 -0.94,0 -1.725,-0.385 -2.355,-1.152 -0.63,-0.77 -0.946,-1.981 -0.946,-3.635 m 6.688,-6.229 v 1.571 c -0.791,-1.235 -1.954,-1.852 -3.49,-1.852 -0.995,0 -1.91,0.274 -2.744,0.822 -0.834,0.549 -1.48,1.315 -1.938,2.299 -0.458,0.983 -0.688,2.113 -0.688,3.391 0,1.246 0.208,2.376 0.623,3.39 0.415,1.015 1.038,1.793 1.869,2.334 0.83,0.54 1.757,0.811 2.785,0.811 0.752,0 1.422,-0.158 2.009,-0.476 0.586,-0.317 1.065,-0.73 1.433,-1.239 v 6.184 h 2.109 v -17.235 z" /><path
         inkscape:connector-curvature="0"
         id="path871"
         style="fill:#231f20;fill-opacity:1;fill-rule:nonzero;stroke:none"
         d="m 282.728,-14.692 h 2.109 v -12.484 h -2.109 z m 0,4.75 h 2.109 v -2.438 h -2.109 z" /><path
         inkscape:connector-curvature="0"
         id="path873"
         style="fill:#231f20;fill-opacity:1;fill-rule:nonzero;stroke:none"
         d="m 288.073,-27.177 v 12.485 h 1.89 v -1.775 c 0.916,1.37 2.24,2.056 3.971,2.056 0.751,0 1.442,-0.135 2.073,-0.405 0.63,-0.271 1.102,-0.625 1.415,-1.065 0.314,-0.438 0.533,-0.96 0.659,-1.563 0.078,-0.392 0.117,-1.077 0.117,-2.057 v -7.676 h -2.11 v 7.598 c 0,0.862 -0.082,1.507 -0.247,1.934 -0.164,0.427 -0.455,0.769 -0.874,1.023 -0.419,0.256 -0.91,0.383 -1.473,0.383 -0.901,0 -1.678,-0.286 -2.331,-0.859 -0.654,-0.572 -0.981,-1.658 -0.981,-3.257 v -6.822 z" /><path
         inkscape:connector-curvature="0"
         id="path875"
         style="fill:#231f20;fill-opacity:1;fill-rule:nonzero;stroke:none"
         d="m 310.043,-21.007 c 0,-1.607 0.326,-2.796 0.975,-3.564 0.649,-0.769 1.436,-1.153 2.359,-1.153 0.939,0 1.744,0.399 2.413,1.194 0.668,0.797 1.003,2.029 1.003,3.699 0,1.592 -0.327,2.783 -0.98,3.576 -0.653,0.791 -1.435,1.188 -2.342,1.188 -0.899,0 -1.696,-0.422 -2.388,-1.265 -0.693,-0.843 -1.04,-2.067 -1.04,-3.675 m -1.906,-10.951 v 17.266 h 1.922 v -1.622 c 0.454,0.633 0.968,1.11 1.539,1.427 0.571,0.318 1.265,0.476 2.08,0.476 1.066,0 2.005,-0.275 2.82,-0.822 0.814,-0.549 1.429,-1.324 1.844,-2.323 0.415,-0.999 0.623,-2.093 0.623,-3.285 0,-1.277 -0.229,-2.427 -0.687,-3.449 -0.458,-1.023 -1.124,-1.807 -1.997,-2.352 -0.874,-0.544 -1.793,-0.816 -2.756,-0.816 -0.705,0 -1.338,0.148 -1.898,0.445 -0.56,0.297 -1.02,0.672 -1.38,1.125 v -6.07 z" /><path
         inkscape:connector-curvature="0"
         id="path877"
         style="fill:#231f20;fill-opacity:1;fill-rule:nonzero;stroke:none"
         d="m 329.674,-27.177 v 1.841 c -0.968,-1.415 -2.285,-2.122 -3.949,-2.122 -0.734,0 -1.42,0.141 -2.057,0.423 -0.636,0.282 -1.109,0.637 -1.418,1.064 -0.308,0.427 -0.525,0.95 -0.65,1.57 -0.086,0.415 -0.129,1.073 -0.129,1.974 v 7.735 h 2.11 v -6.92 c 0,-1.105 0.043,-1.848 0.128,-2.233 0.133,-0.555 0.415,-0.992 0.845,-1.309 0.43,-0.318 0.961,-0.476 1.595,-0.476 0.633,0 1.227,0.162 1.782,0.487 0.555,0.326 0.947,0.768 1.179,1.328 0.23,0.56 0.346,1.373 0.346,2.438 v 6.685 h 2.108 v -12.485 z" /><path
         inkscape:connector-curvature="0"
         id="path879"
         style="fill:#231f20;fill-opacity:1;fill-rule:nonzero;stroke:none"
         d="m 336.804,-20.841 c 0,-1.498 0.204,-2.58 0.612,-3.247 0.667,-1.091 1.569,-1.636 2.708,-1.636 0.926,0 1.727,0.403 2.401,1.206 0.675,0.804 1.013,2.002 1.013,3.595 0,1.632 -0.324,2.836 -0.972,3.612 -0.647,0.777 -1.43,1.165 -2.348,1.165 -0.926,0 -1.727,-0.402 -2.402,-1.206 -0.674,-0.803 -1.012,-1.966 -1.012,-3.489 m 0.031,-6.336 h -1.953 v 17.235 h 2.109 v -6.145 c 0.895,1.117 2.035,1.676 3.424,1.676 0.769,0 1.496,-0.154 2.183,-0.465 0.686,-0.309 1.251,-0.744 1.694,-1.305 0.443,-0.559 0.791,-1.235 1.041,-2.027 0.252,-0.791 0.377,-1.638 0.377,-2.539 0,-2.139 -0.529,-3.792 -1.589,-4.96 -1.059,-1.167 -2.331,-1.751 -3.813,-1.751 -1.476,0 -2.633,0.613 -3.473,1.84 z" /><path
         inkscape:connector-curvature="0"
         id="path881"
         style="fill:#231f20;fill-opacity:1;fill-rule:nonzero;stroke:none"
         d="m 348.231,-9.942 h 2.109 v -17.234 h -2.109 z" /><path
         inkscape:connector-curvature="0"
         id="path883"
         style="fill:#231f20;fill-opacity:1;fill-rule:nonzero;stroke:none"
         d="m 353.623,-14.692 h 2.109 v -12.484 h -2.109 z m 0,4.75 h 2.109 v -2.438 h -2.109 z" /><path
         inkscape:connector-curvature="0"
         id="path885"
         style="fill:#231f20;fill-opacity:1;fill-rule:nonzero;stroke:none"
         d="m 367.109,-22.599 2.079,-0.281 c -0.228,-1.432 -0.81,-2.553 -1.747,-3.363 -0.936,-0.811 -2.087,-1.215 -3.45,-1.215 -1.709,0 -3.082,0.559 -4.121,1.675 -1.039,1.116 -1.557,2.717 -1.557,4.802 0,1.347 0.223,2.527 0.669,3.537 0.447,1.011 1.126,1.769 2.039,2.275 0.914,0.505 1.907,0.758 2.98,0.758 1.355,0 2.465,-0.344 3.326,-1.029 0.861,-0.687 1.414,-1.662 1.657,-2.924 l -2.062,-0.313 c -0.196,0.84 -0.542,1.472 -1.04,1.896 -0.497,0.424 -1.098,0.635 -1.803,0.635 -1.065,0 -1.931,-0.382 -2.596,-1.147 -0.666,-0.765 -0.999,-1.975 -0.999,-3.63 0,-1.679 0.322,-2.898 0.965,-3.659 0.644,-0.761 1.483,-1.142 2.519,-1.142 0.831,0 1.525,0.256 2.082,0.767 0.557,0.511 0.91,1.297 1.059,2.358" /><path
         inkscape:connector-curvature="0"
         id="path887"
         style="fill:#231f20;fill-opacity:1;fill-rule:nonzero;stroke:none"
         d="m 379.073,-20.948 c 0,-1.6 0.337,-2.795 1.01,-3.588 0.674,-0.791 1.469,-1.188 2.385,-1.188 0.924,0 1.709,0.378 2.355,1.135 0.646,0.757 0.969,1.911 0.969,3.464 0,1.71 -0.329,2.964 -0.986,3.765 -0.659,0.798 -1.469,1.199 -2.432,1.199 -0.939,0 -1.725,-0.385 -2.355,-1.152 -0.63,-0.77 -0.946,-1.981 -0.946,-3.635 m 6.688,-6.229 v 1.571 c -0.791,-1.235 -1.955,-1.852 -3.49,-1.852 -0.995,0 -1.91,0.274 -2.744,0.822 -0.834,0.549 -1.48,1.315 -1.938,2.299 -0.459,0.983 -0.688,2.113 -0.688,3.391 0,1.246 0.207,2.376 0.623,3.39 0.415,1.015 1.038,1.793 1.869,2.334 0.83,0.54 1.758,0.811 2.784,0.811 0.752,0 1.422,-0.158 2.01,-0.476 0.587,-0.317 1.065,-0.73 1.433,-1.239 v 6.184 h 2.109 v -17.235 z" /><path
         inkscape:connector-curvature="0"
         id="path889"
         style="fill:#231f20;fill-opacity:1;fill-rule:nonzero;stroke:none"
         d="m 392.438,-20.937 c 0,-1.599 0.348,-2.796 1.045,-3.593 0.698,-0.795 1.575,-1.194 2.632,-1.194 1.05,0 1.923,0.401 2.62,1.2 0.698,0.8 1.046,2.019 1.046,3.658 0,1.545 -0.35,2.715 -1.052,3.512 -0.701,0.794 -1.572,1.193 -2.614,1.193 -1.057,0 -1.934,-0.397 -2.632,-1.188 -0.697,-0.793 -1.045,-1.988 -1.045,-3.588 m -2.172,0.002 c 0,2.312 0.641,4.024 1.926,5.137 1.073,0.924 2.38,1.387 3.923,1.387 1.715,0 3.116,-0.563 4.205,-1.687 1.089,-1.125 1.633,-2.678 1.633,-4.661 0,-1.605 -0.241,-2.869 -0.723,-3.79 -0.481,-0.921 -1.182,-1.636 -2.102,-2.145 -0.92,-0.509 -1.924,-0.764 -3.013,-0.764 -1.746,0 -3.158,0.561 -4.234,1.681 -1.077,1.12 -1.615,2.735 -1.615,4.842" /><path
         inkscape:connector-curvature="0"
         id="path891"
         style="fill:#231f20;fill-opacity:1;fill-rule:nonzero;stroke:none"
         d="m 404.436,-27.177 v 12.485 h 1.89 v -1.747 c 0.392,0.609 0.911,1.1 1.561,1.471 0.649,0.371 1.387,0.557 2.217,0.557 0.922,0 1.679,-0.192 2.27,-0.574 0.59,-0.384 1.007,-0.919 1.249,-1.607 0.988,1.454 2.275,2.181 3.859,2.181 1.24,0 2.193,-0.343 2.86,-1.028 0.667,-0.687 1,-1.743 1,-3.168 v -8.57 h -2.11 v 7.868 c 0,0.847 -0.068,1.456 -0.206,1.83 -0.136,0.372 -0.385,0.671 -0.746,0.899 -0.361,0.227 -0.785,0.341 -1.27,0.341 -0.879,0 -1.609,-0.292 -2.189,-0.876 -0.58,-0.585 -0.87,-1.52 -0.87,-2.806 v -7.256 h -2.109 v 8.115 c 0,0.941 -0.172,1.647 -0.517,2.117 -0.345,0.47 -0.908,0.706 -1.691,0.706 -0.595,0 -1.145,-0.157 -1.651,-0.471 -0.504,-0.313 -0.871,-0.772 -1.097,-1.376 -0.227,-0.603 -0.341,-1.474 -0.341,-2.61 v -6.481 z" /><path
         inkscape:connector-curvature="0"
         id="path893"
         style="fill:#231f20;fill-opacity:1;fill-rule:nonzero;stroke:none"
         d="m 432.438,-20.911 c -0.767,-0.314 -1.918,-0.58 -3.453,-0.799 -0.868,-0.126 -1.482,-0.268 -1.842,-0.424 -0.361,-0.156 -0.638,-0.386 -0.833,-0.687 -0.197,-0.302 -0.294,-0.637 -0.294,-1.006 0,-0.565 0.213,-1.034 0.638,-1.41 0.426,-0.377 1.049,-0.565 1.869,-0.565 0.813,0 1.536,0.178 2.168,0.535 0.633,0.357 1.098,0.844 1.395,1.463 0.227,0.479 0.34,1.184 0.34,2.117 z m 0.171,-4.719 c -0.786,-0.668 -1.541,-1.141 -2.263,-1.415 -0.723,-0.275 -1.498,-0.413 -2.326,-0.413 -1.368,0 -2.418,0.335 -3.153,1.005 -0.734,0.67 -1.101,1.526 -1.101,2.567 0,0.612 0.138,1.17 0.416,1.675 0.277,0.506 0.64,0.911 1.089,1.217 0.45,0.306 0.956,0.536 1.518,0.693 0.414,0.11 1.039,0.216 1.875,0.318 1.703,0.203 2.957,0.446 3.762,0.728 0.008,0.29 0.012,0.475 0.012,0.553 0,0.863 -0.2,1.471 -0.599,1.823 -0.539,0.479 -1.34,0.718 -2.403,0.718 -0.994,0 -1.726,-0.175 -2.199,-0.524 -0.473,-0.348 -0.823,-0.965 -1.049,-1.851 l -2.063,0.281 c 0.188,0.886 0.497,1.601 0.928,2.146 0.43,0.544 1.052,0.963 1.867,1.256 0.814,0.295 1.759,0.442 2.831,0.442 1.064,0 1.93,-0.125 2.596,-0.376 0.665,-0.251 1.154,-0.567 1.467,-0.946 0.314,-0.38 0.533,-0.861 0.659,-1.44 0.07,-0.361 0.105,-1.012 0.105,-1.951 v -2.822 c 0,-1.967 0.045,-3.211 0.136,-3.733 0.09,-0.52 0.268,-1.019 0.536,-1.498 h -2.203 c -0.228,0.442 -0.373,0.957 -0.438,1.547" /><path
         inkscape:connector-curvature="0"
         id="path895"
         style="fill:#231f20;fill-opacity:1;fill-rule:nonzero;stroke:none"
         d="m 437.865,-14.692 h 2.109 v -12.484 h -2.109 z m 0,4.75 h 2.109 v -2.438 h -2.109 z" /><path
         inkscape:connector-curvature="0"
         id="path897"
         style="fill:#231f20;fill-opacity:1;fill-rule:nonzero;stroke:none"
         d="m 443.21,-27.177 v 12.485 h 1.891 v -1.775 c 0.916,1.37 2.239,2.056 3.97,2.056 0.752,0 1.443,-0.135 2.074,-0.405 0.629,-0.271 1.101,-0.625 1.415,-1.065 0.313,-0.438 0.532,-0.96 0.658,-1.563 0.078,-0.392 0.117,-1.077 0.117,-2.057 v -7.676 h -2.109 v 7.598 c 0,0.862 -0.082,1.507 -0.247,1.934 -0.165,0.427 -0.457,0.769 -0.875,1.023 -0.418,0.256 -0.91,0.383 -1.473,0.383 -0.901,0 -1.678,-0.286 -2.331,-0.859 -0.654,-0.572 -0.981,-1.658 -0.981,-3.257 v -6.822 z" /><path
         inkscape:connector-curvature="0"
         id="path899"
         style="fill:#231f20;fill-opacity:1;fill-rule:nonzero;stroke:none"
         d="m 465.181,-20.841 c 0,-1.498 0.204,-2.58 0.612,-3.247 0.667,-1.091 1.569,-1.636 2.708,-1.636 0.926,0 1.727,0.403 2.401,1.206 0.675,0.804 1.013,2.002 1.013,3.595 0,1.632 -0.324,2.836 -0.972,3.612 -0.647,0.777 -1.43,1.165 -2.348,1.165 -0.926,0 -1.727,-0.402 -2.402,-1.206 -0.674,-0.803 -1.012,-1.966 -1.012,-3.489 m 0.031,-6.336 h -1.953 v 17.235 h 2.109 v -6.145 c 0.895,1.117 2.035,1.676 3.424,1.676 0.769,0 1.496,-0.154 2.183,-0.465 0.686,-0.309 1.251,-0.744 1.694,-1.305 0.443,-0.559 0.791,-1.235 1.041,-2.027 0.252,-0.791 0.377,-1.638 0.377,-2.539 0,-2.139 -0.529,-3.792 -1.589,-4.96 -1.06,-1.167 -2.331,-1.751 -3.813,-1.751 -1.476,0 -2.633,0.613 -3.473,1.84 z" /><path
         inkscape:connector-curvature="0"
         id="path901"
         style="fill:#231f20;fill-opacity:1;fill-rule:nonzero;stroke:none"
         d="m 476.562,-31.979 -0.235,1.99 c 0.461,-0.125 0.864,-0.188 1.208,-0.188 0.47,0 0.845,0.078 1.126,0.235 0.281,0.157 0.513,0.377 0.693,0.658 0.132,0.212 0.347,0.736 0.645,1.574 0.039,0.118 0.102,0.29 0.188,0.518 l -4.75,12.5 h 2.28 l 2.602,-7.198 c 0.338,-0.912 0.64,-1.872 0.908,-2.879 0.244,0.941 0.535,1.873 0.873,2.797 l 2.665,7.28 h 2.114 l -4.733,-12.704 c -0.51,-1.369 -0.906,-2.31 -1.188,-2.827 -0.376,-0.695 -0.807,-1.205 -1.293,-1.53 -0.486,-0.324 -1.066,-0.486 -1.74,-0.486 -0.407,0 -0.862,0.086 -1.363,0.26" /><path
         inkscape:connector-curvature="0"
         id="path903"
         style="fill:#231f20;fill-opacity:1;fill-rule:nonzero;stroke:none"
         d="m 495.744,-27.177 v 17.235 h 11.625 v -2.032 h -9.344 v -5.343 h 8.094 v -2.032 h -8.094 v -7.828 z" /><path
         inkscape:connector-curvature="0"
         id="path905"
         style="fill:#231f20;fill-opacity:1;fill-rule:nonzero;stroke:none"
         d="m 510.034,-27.177 v 12.485 h 1.891 v -1.895 c 0.487,0.886 0.936,1.471 1.349,1.752 0.413,0.283 0.866,0.424 1.362,0.424 0.715,0 1.441,-0.228 2.179,-0.682 l -0.74,-1.957 c -0.515,0.301 -1.032,0.451 -1.549,0.451 -0.461,0 -0.875,-0.138 -1.243,-0.417 -0.367,-0.278 -0.63,-0.664 -0.786,-1.158 -0.236,-0.752 -0.353,-1.575 -0.353,-2.468 v -6.535 z" /><path
         inkscape:connector-curvature="0"
         id="path907"
         style="fill:#231f20;fill-opacity:1;fill-rule:nonzero;stroke:none"
         d="m 519.655,-19.739 h 6.969 c -0.094,1.052 -0.36,1.842 -0.799,2.368 -0.674,0.817 -1.548,1.225 -2.621,1.225 -0.972,0 -1.788,-0.326 -2.45,-0.978 -0.662,-0.651 -1.028,-1.523 -1.099,-2.615 m 6.946,-3.407 2.187,-0.281 c -0.345,-1.277 -0.983,-2.268 -1.915,-2.973 -0.932,-0.705 -2.122,-1.058 -3.571,-1.058 -1.824,0 -3.272,0.562 -4.34,1.687 -1.069,1.124 -1.604,2.701 -1.604,4.731 0,2.1 0.54,3.729 1.621,4.889 1.081,1.16 2.483,1.74 4.206,1.74 1.668,0 3.031,-0.568 4.087,-1.704 1.057,-1.136 1.586,-2.735 1.586,-4.794 0,-0.126 -0.004,-0.315 -0.011,-0.565 h -9.317 c 0.078,-1.373 0.467,-2.425 1.164,-3.155 0.699,-0.729 1.57,-1.095 2.613,-1.095 0.776,0 1.438,0.205 1.988,0.616 0.549,0.41 0.983,1.064 1.306,1.962" /><path
         inkscape:connector-curvature="0"
         id="path909"
         style="fill:#231f20;fill-opacity:1;fill-rule:nonzero;stroke:none"
         d="m 533.035,-19.739 h 6.969 c -0.095,1.052 -0.36,1.842 -0.799,2.368 -0.674,0.817 -1.548,1.225 -2.621,1.225 -0.972,0 -1.788,-0.326 -2.45,-0.978 -0.662,-0.651 -1.029,-1.523 -1.099,-2.615 m 6.945,-3.407 2.188,-0.281 c -0.345,-1.277 -0.983,-2.268 -1.915,-2.973 -0.932,-0.705 -2.122,-1.058 -3.57,-1.058 -1.826,0 -3.273,0.562 -4.341,1.687 -1.07,1.124 -1.604,2.701 -1.604,4.731 0,2.1 0.54,3.729 1.621,4.889 1.081,1.16 2.483,1.74 4.205,1.74 1.668,0 3.031,-0.568 4.088,-1.704 1.058,-1.136 1.586,-2.735 1.586,-4.794 0,-0.126 -0.004,-0.315 -0.011,-0.565 h -9.317 c 0.078,-1.373 0.467,-2.425 1.165,-3.155 0.697,-0.729 1.569,-1.095 2.612,-1.095 0.776,0 1.439,0.205 1.988,0.616 0.549,0.41 0.984,1.064 1.305,1.962" /><path
         inkscape:connector-curvature="0"
         id="path911"
         style="fill:#231f20;fill-opacity:1;fill-rule:nonzero;stroke:none"
         d="m 544.338,-21.646 2.156,0.188 c 0.102,-0.864 0.338,-1.574 0.709,-2.128 0.371,-0.554 0.948,-1.002 1.73,-1.344 0.781,-0.341 1.661,-0.512 2.637,-0.512 0.868,0 1.634,0.129 2.298,0.388 0.664,0.26 1.158,0.616 1.484,1.068 0.324,0.451 0.486,0.944 0.486,1.476 0,0.541 -0.156,1.013 -0.468,1.417 -0.311,0.404 -0.828,0.742 -1.549,1.017 -0.462,0.18 -1.484,0.461 -3.066,0.842 -1.583,0.38 -2.692,0.739 -3.328,1.077 -0.824,0.431 -1.438,0.967 -1.842,1.607 -0.404,0.639 -0.606,1.356 -0.606,2.149 0,0.871 0.247,1.685 0.741,2.442 0.493,0.757 1.215,1.332 2.163,1.725 0.948,0.392 2.003,0.588 3.163,0.588 1.278,0 2.404,-0.205 3.381,-0.616 0.976,-0.411 1.726,-1.015 2.252,-1.813 0.525,-0.798 0.807,-1.701 0.846,-2.711 l -2.187,-0.172 c -0.118,1.087 -0.515,1.908 -1.192,2.464 -0.678,0.556 -1.68,0.833 -3.003,0.833 -1.38,0 -2.384,-0.253 -3.015,-0.759 -0.631,-0.507 -0.946,-1.116 -0.946,-1.83 0,-0.62 0.223,-1.13 0.67,-1.53 0.438,-0.401 1.585,-0.811 3.437,-1.23 1.853,-0.42 3.124,-0.786 3.814,-1.099 1.002,-0.462 1.743,-1.048 2.221,-1.757 0.478,-0.709 0.717,-1.526 0.717,-2.449 0,-0.917 -0.263,-1.781 -0.787,-2.591 -0.525,-0.812 -1.277,-1.442 -2.26,-1.892 -0.982,-0.45 -2.089,-0.676 -3.317,-0.676 -1.558,0 -2.864,0.228 -3.916,0.682 -1.053,0.454 -1.879,1.138 -2.478,2.051 -0.598,0.912 -0.914,1.944 -0.945,3.095" /><path
         inkscape:connector-curvature="0"
         id="path913"
         style="fill:#231f20;fill-opacity:1;fill-rule:nonzero;stroke:none"
         d="m 566.063,-27.177 -6.666,17.235 h 2.472 l 4.478,-12.516 c 0.36,-1.003 0.662,-1.943 0.905,-2.82 0.267,0.939 0.576,1.88 0.929,2.82 l 4.657,12.516 h 2.331 l -6.748,-17.235 z" /><path
         inkscape:connector-curvature="0"
         id="path915"
         style="fill:#231f20;fill-opacity:1;fill-rule:nonzero;stroke:none"
         d="m 585.26,-20.427 v 2.031 h 7.297 v -6.388 c -1.12,-0.893 -2.277,-1.565 -3.468,-2.014 -1.191,-0.451 -2.413,-0.676 -3.666,-0.676 -1.694,0 -3.231,0.363 -4.613,1.088 -1.384,0.725 -2.428,1.774 -3.133,3.146 -0.705,1.372 -1.058,2.905 -1.058,4.598 0,1.678 0.351,3.244 1.052,4.698 0.701,1.455 1.71,2.535 3.026,3.24 1.317,0.706 2.833,1.058 4.549,1.058 1.245,0 2.372,-0.202 3.379,-0.606 1.007,-0.404 1.796,-0.968 2.368,-1.689 0.572,-0.722 1.007,-1.664 1.305,-2.827 l -2.058,-0.563 c -0.259,0.878 -0.58,1.568 -0.965,2.071 -0.383,0.503 -0.932,0.906 -1.645,1.208 -0.714,0.302 -1.506,0.453 -2.376,0.453 -1.042,0 -1.944,-0.158 -2.704,-0.476 -0.761,-0.317 -1.375,-0.735 -1.841,-1.252 -0.466,-0.517 -0.829,-1.085 -1.088,-1.704 -0.438,-1.066 -0.658,-2.222 -0.658,-3.468 0,-1.536 0.265,-2.821 0.794,-3.855 0.529,-1.036 1.299,-1.803 2.31,-2.305 1.011,-0.501 2.085,-0.752 3.222,-0.752 0.988,0 1.952,0.189 2.894,0.568 0.94,0.38 1.653,0.784 2.139,1.215 v 3.201 z" /><path
         inkscape:connector-curvature="0"
         id="path917"
         style="fill:#231f20;fill-opacity:1;fill-rule:nonzero;stroke:none"
         d="m 596.239,-24.771 h 2.406 v -2.406 h -2.406 z" /><path
         inkscape:connector-curvature="0"
         id="path919"
         style="fill:#231f20;fill-opacity:1;fill-rule:nonzero;stroke:none"
         d="m 603.705,-20.937 c 0,-1.599 0.349,-2.796 1.046,-3.593 0.697,-0.795 1.574,-1.194 2.632,-1.194 1.05,0 1.923,0.401 2.62,1.2 0.697,0.8 1.046,2.019 1.046,3.658 0,1.545 -0.351,2.715 -1.052,3.512 -0.701,0.794 -1.572,1.193 -2.614,1.193 -1.058,0 -1.935,-0.397 -2.632,-1.188 -0.697,-0.793 -1.046,-1.988 -1.046,-3.588 m -2.172,0.002 c 0,2.312 0.642,4.024 1.927,5.137 1.072,0.924 2.38,1.387 3.923,1.387 1.715,0 3.116,-0.563 4.205,-1.687 1.089,-1.125 1.633,-2.678 1.633,-4.661 0,-1.605 -0.242,-2.869 -0.723,-3.79 -0.481,-0.921 -1.183,-1.636 -2.102,-2.145 -0.92,-0.509 -1.924,-0.764 -3.013,-0.764 -1.746,0 -3.158,0.561 -4.235,1.681 -1.077,1.12 -1.615,2.735 -1.615,4.842" /><path
         inkscape:connector-curvature="0"
         id="path921"
         style="fill:#231f20;fill-opacity:1;fill-rule:nonzero;stroke:none"
         d="m 615.679,-27.177 v 12.485 h 1.89 v -1.895 c 0.488,0.886 0.937,1.471 1.35,1.752 0.412,0.283 0.865,0.424 1.361,0.424 0.715,0 1.442,-0.228 2.18,-0.682 l -0.74,-1.957 c -0.516,0.301 -1.032,0.451 -1.549,0.451 -0.461,0 -0.875,-0.138 -1.243,-0.417 -0.367,-0.278 -0.63,-0.664 -0.786,-1.158 -0.237,-0.752 -0.354,-1.575 -0.354,-2.468 v -6.535 z" /><path
         inkscape:connector-curvature="0"
         id="path923"
         style="fill:#231f20;fill-opacity:1;fill-rule:nonzero;stroke:none"
         d="m 625.077,-20.712 c 0,-1.639 0.325,-2.834 0.975,-3.586 0.649,-0.753 1.463,-1.129 2.441,-1.129 0.971,0 1.784,0.374 2.442,1.123 0.658,0.748 0.986,1.922 0.986,3.522 0,1.528 -0.338,2.68 -1.016,3.457 -0.676,0.775 -1.492,1.164 -2.447,1.164 -0.939,0 -1.737,-0.383 -2.395,-1.147 -0.657,-0.764 -0.986,-1.899 -0.986,-3.404 m -1.75,-7.496 2.063,-0.313 c 0.086,-0.632 0.325,-1.093 0.715,-1.382 0.525,-0.391 1.241,-0.586 2.148,-0.586 0.977,0 1.732,0.196 2.265,0.588 0.531,0.392 0.891,0.941 1.079,1.647 0.109,0.432 0.16,1.337 0.152,2.718 -0.924,-1.094 -2.074,-1.641 -3.453,-1.641 -1.715,0 -3.042,0.619 -3.982,1.858 -0.939,1.238 -1.409,2.722 -1.409,4.455 0,1.191 0.216,2.29 0.647,3.297 0.43,1.006 1.055,1.785 1.874,2.333 0.818,0.548 1.78,0.823 2.884,0.823 1.472,0 2.687,-0.594 3.642,-1.781 v 1.5 h 1.953 v -10.789 c 0,-1.944 -0.197,-3.321 -0.593,-4.131 -0.396,-0.811 -1.023,-1.451 -1.88,-1.922 -0.859,-0.47 -1.914,-0.705 -3.168,-0.705 -1.489,0 -2.692,0.335 -3.609,1.005 -0.917,0.67 -1.359,1.678 -1.328,3.026" /></g><g
       id="g1071"><path
         inkscape:connector-curvature="0"
         id="path925"
         style="fill:#000000;fill-opacity:1;fill-rule:nonzero;stroke:none"
         d="m 366.776,427.02 c 0,0.532 0.429,0.964 0.962,0.964 0.532,0 0.963,-0.432 0.963,-0.964 0,-0.531 -0.431,-0.963 -0.963,-0.963 -0.533,0 -0.962,0.432 -0.962,0.963 m -17.594,-21.115 c 0,0.533 0.43,0.964 0.963,0.964 0.533,0 0.963,-0.431 0.963,-0.964 0,-0.531 -0.43,-0.963 -0.963,-0.963 -0.533,0 -0.963,0.432 -0.963,0.963 m -23.303,6.809 c 0,0.532 0.43,0.964 0.962,0.964 0.532,0 0.963,-0.432 0.963,-0.964 0,-0.531 -0.431,-0.964 -0.963,-0.964 -0.532,0 -0.962,0.433 -0.962,0.964 m 26.192,-16.73 c 0,-0.532 -0.429,-0.963 -0.963,-0.963 -0.533,0 -0.963,0.431 -0.963,0.963 0,0.532 0.43,0.962 0.963,0.962 0.534,0 0.963,-0.43 0.963,-0.962 m 39.783,30.529 c 0,-0.279 -0.224,-0.506 -0.506,-0.506 -0.279,0 -0.506,0.227 -0.506,0.506 0,0.281 0.227,0.507 0.506,0.507 0.282,0 0.506,-0.226 0.506,-0.507 M 338.775,394.93 c 0,-0.379 -0.305,-0.686 -0.685,-0.686 -0.379,0 -0.686,0.307 -0.686,0.686 0,0.378 0.307,0.686 0.686,0.686 0.38,0 0.685,-0.308 0.685,-0.686 m 46.095,31.523 c 0,-0.245 -0.201,-0.446 -0.445,-0.446 -0.247,0 -0.446,0.201 -0.446,0.446 0,0.246 0.199,0.446 0.446,0.446 0.244,0 0.445,-0.2 0.445,-0.446 m -80.575,0.233 c 0,-0.268 -0.215,-0.483 -0.482,-0.483 -0.266,0 -0.48,0.215 -0.48,0.483 0,0.266 0.214,0.482 0.48,0.482 0.267,0 0.482,-0.216 0.482,-0.482 m 4.401,-11.375 c 0,-0.357 -0.289,-0.645 -0.643,-0.645 -0.356,0 -0.646,0.288 -0.646,0.645 0,0.356 0.29,0.645 0.646,0.645 0.354,0 0.643,-0.289 0.643,-0.645 m -7.912,3.576 c 0,-0.355 -0.288,-0.642 -0.642,-0.642 -0.355,0 -0.645,0.287 -0.645,0.642 0,0.356 0.29,0.643 0.645,0.643 0.354,0 0.642,-0.287 0.642,-0.643 M 257.69,454.3 c 15.75,13.917 35.355,31.239 67.277,39.192 26.721,6.663 46.508,-0.765 62.45,-13.525 -4.419,2.61 -8.996,4.94 -13.74,6.848 -7.306,2.951 -14.947,4.963 -22.689,6.033 7.663,-1.573 15.085,-4.065 22.069,-7.429 6.988,-3.36 13.525,-7.564 19.563,-12.371 0.245,-0.195 0.475,-0.404 0.718,-0.6 -13.141,8.113 -27.693,13.982 -42.804,16.457 15.044,-3.504 29.058,-10.322 41.443,-19.198 8.16,-5.825 15.631,-12.502 22.601,-19.676 -1.083,0.839 -2.159,1.691 -3.227,2.559 -6.032,4.89 -12.074,9.959 -18.579,14.393 -6.483,4.46 -13.404,8.287 -20.639,11.323 -7.262,2.996 -14.846,5.032 -22.48,6.612 7.555,-1.955 14.987,-4.349 22.015,-7.661 7.006,-3.353 13.614,-7.443 19.762,-12.132 6.176,-4.67 11.86,-9.934 17.698,-15.159 5.089,-4.55 10.525,-9.153 17.08,-12.263 4.056,-3.687 7.31,-5.781 9.847,-7.408 2.514,-1.613 4.178,-2.68 5.497,-4.435 0.437,-0.585 0.547,-0.899 0.584,-0.912 -0.656,-1.281 -6.077,-3.652 -11.324,-5.945 -3.359,-1.469 -7.166,-3.133 -11.601,-5.237 -5.26,-2.494 -10.505,-6.779 -16.578,-11.739 -13.567,-11.086 -30.453,-24.879 -57.547,-26.857 -22.214,-1.628 -39.851,6.826 -53.883,17.422 5.13,-3.232 10.486,-6.094 16.059,-8.46 7.845,-3.331 16.122,-5.67 24.58,-6.599 -8.427,1.183 -16.59,3.759 -24.271,7.298 -7.686,3.54 -14.911,8.022 -21.643,13.125 -6.734,5.104 -12.96,10.858 -18.685,17.047 -5.105,5.557 -9.83,11.509 -13.8,17.842 0.135,0.093 0.269,0.187 0.403,0.28 4.3,-6.233 9.098,-12.052 14.3,-17.483 5.835,-6.049 12.141,-11.647 18.946,-16.565 6.799,-4.919 14.085,-9.178 21.796,-12.445 7.706,-3.27 15.843,-5.523 24.144,-6.441 -8.271,1.172 -16.294,3.665 -23.834,7.14 -7.547,3.473 -14.623,7.906 -21.189,12.968 -6.572,5.06 -12.622,10.776 -18.186,16.907 -4.981,5.523 -9.543,11.431 -13.547,17.64 0.293,0.211 0.588,0.427 0.881,0.64 4.216,-6.605 9.038,-12.745 14.338,-18.437 5.59,-5.945 11.671,-11.43 18.277,-16.202 6.601,-4.769 13.713,-8.842 21.23,-11.926 7.51,-3.089 15.422,-5.167 23.471,-6.062 -8.018,1.149 -15.822,3.468 -23.17,6.764 -7.353,3.292 -14.251,7.538 -20.615,12.447 -6.367,4.911 -12.186,10.505 -17.494,16.518 -0.206,0.234 -0.395,0.48 -0.598,0.715 14.255,-14.383 36.466,-31.877 60.918,-32.872 1.348,-0.056 2.67,-0.083 3.966,-0.083 24.272,0 40.206,9.318 54.35,17.589 0.236,0.138 0.468,0.272 0.701,0.409 -1.885,-1.67 -3.819,-3.282 -5.842,-4.795 -6.971,-5.281 -14.952,-9.291 -23.508,-11.54 8.664,1.748 16.986,5.324 24.39,10.293 5.03,3.324 9.641,7.209 14.109,11.204 1.69,0.894 3.388,1.733 5.098,2.515 -1.33,-1.247 -2.662,-2.491 -4.019,-3.705 -3.666,-3.256 -7.423,-6.42 -11.336,-9.379 -3.911,-2.959 -7.953,-5.752 -12.194,-8.227 -4.239,-2.454 -8.689,-4.649 -13.477,-5.873 4.848,0.974 9.446,2.951 13.843,5.201 4.4,2.273 8.623,4.88 12.72,7.659 4.103,2.781 8.053,5.774 11.924,8.868 3.283,2.644 6.482,5.385 9.611,8.245 1.19,0.384 2.391,0.736 3.616,1.035 12.247,2.989 17.092,5.763 17.279,9.89 0.193,4.226 -4.615,6.755 -11.892,9.249 -2.642,0.906 -5.88,3.4 -9.557,6.674 -0.005,0.034 -0.009,0.069 -0.016,0.102 l -0.074,-0.02 c -2.01,1.792 -4.149,3.81 -6.397,5.936 -11.088,10.476 -24.884,23.514 -42.961,28.802 -20.16,5.899 -46.023,1.866 -70.543,-9.834 1.236,0.843 2.464,1.693 3.726,2.497 7.305,4.568 15.3,8.524 24.01,9.401 -8.736,-0.618 -16.924,-4.363 -24.407,-8.75 -3.412,-2.028 -6.71,-4.231 -9.949,-6.519 -4.905,-2.647 -9.73,-5.602 -14.414,-8.843 0.248,0.2 0.491,0.403 0.736,0.603 7.015,5.69 14.12,11.282 21.733,16.125 3.817,2.4 7.766,4.603 11.912,6.38 4.142,1.767 8.503,3.112 13.015,3.549 -4.522,-0.309 -8.946,-1.535 -13.16,-3.196 -4.221,-1.668 -8.257,-3.776 -12.165,-6.081 -7.795,-4.655 -15.093,-10.075 -22.281,-15.578 -7.187,-5.507 -14.24,-11.187 -21.583,-16.377 -3.676,-2.58 -7.436,-5.043 -11.373,-7.044 -1.939,-1.032 -3.96,-1.829 -5.987,-2.503 -0.747,0.193 -1.464,0.399 -2.136,0.616 0.311,0.087 0.625,0.168 0.932,0.262 2.249,0.791 4.424,1.714 6.463,2.836 4.117,2.184 7.935,4.767 11.65,7.444 7.414,5.389 14.446,11.186 21.599,16.81 7.153,5.616 14.39,11.139 22.114,15.924 3.87,2.372 7.866,4.552 12.053,6.312 4.183,1.751 8.576,3.091 13.116,3.531 -4.55,-0.312 -9.005,-1.534 -13.259,-3.177 -4.261,-1.652 -8.344,-3.733 -12.301,-6.01 -7.905,-4.594 -15.328,-9.94 -22.653,-15.367 -7.318,-5.432 -14.512,-11.029 -21.985,-16.144 -3.74,-2.543 -7.562,-4.966 -11.551,-6.941 -1.982,-1.023 -4.039,-1.817 -6.103,-2.483 -1.222,-0.34 -2.453,-0.592 -3.673,-0.732 3.052,0.747 5.876,2.064 8.543,3.453 4.173,2.22 8.049,4.835 11.829,7.544 7.538,5.45 14.702,11.304 21.984,16.99 7.283,5.675 14.642,11.27 22.488,16.122 3.928,2.409 7.982,4.628 12.229,6.428 4.24,1.789 8.696,3.169 13.307,3.621 -4.621,-0.325 -9.139,-1.586 -13.451,-3.266 -4.319,-1.693 -8.46,-3.813 -12.477,-6.127 -8.023,-4.661 -15.569,-10.078 -23.022,-15.56 -4.123,-3.042 -8.212,-6.127 -12.329,-9.159 0.401,0.354 0.8,0.705 1.205,1.063 m 99.078,-6.6 c -2.766,0 -5.017,2.25 -5.017,5.016 0,2.764 2.251,5.013 5.017,5.013 2.763,0 5.013,-2.249 5.013,-5.013 0,-2.766 -2.25,-5.016 -5.013,-5.016 m -4.075,-7.771 c 0,-1.844 -1.495,-3.338 -3.337,-3.338 -1.842,0 -3.337,1.494 -3.337,3.338 0,1.842 1.495,3.336 3.337,3.336 1.842,0 3.337,-1.494 3.337,-3.336 m -33.499,13.3 c 1.332,2.081 2.863,4.029 4.602,5.708 1.343,1.295 2.842,2.431 4.404,3.205 1.165,0.209 2.327,0.397 3.485,0.56 -1.838,-1.466 -3.484,-3.115 -4.957,-4.891 -3.262,-3.973 -5.796,-8.545 -7.061,-13.448 1.751,4.745 4.686,8.934 8.189,12.415 1.76,1.734 3.687,3.293 5.756,4.544 1.491,0.898 3.084,1.633 4.668,2.059 3.451,0.212 6.868,0.195 10.246,-0.056 1.551,-0.392 3.093,-1.002 4.556,-1.787 1.225,-0.657 2.395,-1.437 3.511,-2.297 -2.361,-0.063 -4.394,-1.385 -5.492,-3.316 -2.483,0.963 -5.17,1.511 -7.994,1.511 -12.229,0 -22.145,-9.915 -22.145,-22.145 0,-12.231 9.916,-22.145 22.145,-22.145 12.231,0 22.146,9.914 22.146,22.145 0,4.72 -1.488,9.086 -4.007,12.681 1.091,1.029 1.806,2.427 1.987,3.994 1.506,-2.342 2.71,-4.902 3.543,-7.603 -0.663,3.286 -1.873,6.491 -3.577,9.443 -0.335,1.976 -1.554,3.633 -3.24,4.585 -1.254,1.463 -2.65,2.816 -4.191,4.017 0.82,-0.149 1.635,-0.325 2.452,-0.504 1.426,-0.689 2.798,-1.626 4.044,-2.721 1.835,-1.614 3.443,-3.537 4.804,-5.631 2.705,-4.19 4.503,-9.111 4.652,-14.252 0.365,5.133 -0.94,10.363 -3.329,15.019 -1.089,2.104 -2.427,4.099 -4.019,5.916 1.304,-0.419 2.603,-0.875 3.894,-1.38 5.838,-6.392 9.155,-14.861 9.155,-23.564 0,-18.92 -15.393,-34.312 -34.313,-34.312 -18.642,0 -33.394,14.781 -34.315,34.383 -0.361,7.691 2.842,15.803 8.784,22.256 0.921,0.998 1.896,1.939 2.908,2.825 0.682,0.18 1.361,0.336 2.04,0.5 -0.133,-0.149 -0.276,-0.292 -0.404,-0.442 -1.7,-2.012 -3.093,-4.219 -4.254,-6.519 -2.298,-4.598 -3.75,-9.62 -3.893,-14.682 0.651,5.017 2.581,9.752 5.22,13.929 m 94.448,-20.439 c 2.176,-3.747 -1.758,-9.985 -3.513,-12.803 -0.931,-0.333 -1.854,-0.682 -2.763,-1.053 0.015,0.098 0.034,0.197 0.049,0.295 0.358,2.407 0.594,4.82 0.618,7.224 -0.53,-2.341 -1.261,-4.619 -2.096,-6.837 -0.196,-0.508 -0.403,-1.019 -0.615,-1.524 -0.753,-0.332 -1.493,-0.689 -2.237,-1.042 0.489,2.612 0.709,5.287 0.376,7.879 -0.17,-2.668 -0.905,-5.221 -1.872,-7.64 -0.17,-0.415 -0.356,-0.822 -0.539,-1.231 -1.014,-0.51 -2.027,-1.033 -3.032,-1.574 0.16,0.854 0.299,1.711 0.42,2.571 0.401,3.244 0.546,6.549 -0.025,9.739 0.094,-3.231 -0.529,-6.398 -1.375,-9.454 -0.41,-1.415 -0.89,-2.82 -1.44,-4.179 -0.781,-0.435 -1.56,-0.883 -2.34,-1.331 0.123,0.706 0.24,1.411 0.335,2.12 0.22,1.696 0.372,3.399 0.376,5.106 -0.002,1.702 -0.118,3.424 -0.597,5.045 0.227,-1.671 0.081,-3.345 -0.165,-4.985 -0.255,-1.644 -0.651,-3.261 -1.111,-4.854 -0.381,-1.306 -0.825,-2.591 -1.306,-3.855 -0.68,-0.397 -1.359,-0.791 -2.046,-1.192 -0.181,-0.106 -0.361,-0.211 -0.544,-0.317 0.192,0.969 0.359,1.94 0.489,2.916 0.475,3.644 0.626,7.377 -0.107,10.952 0.259,-3.632 -0.374,-7.221 -1.292,-10.672 -0.432,-1.56 -0.942,-3.111 -1.526,-4.617 -1.052,-0.611 -2.109,-1.216 -3.174,-1.82 0.512,1.567 0.97,3.149 1.325,4.755 0.886,4.001 1.244,8.124 0.816,12.147 -0.109,-6.611 -2.202,-12.888 -5.202,-18.596 -1.476,-0.803 -2.974,-1.589 -4.503,-2.349 0.044,0.077 0.091,0.153 0.134,0.23 1.198,2.168 2.229,4.408 3.107,6.699 1.729,4.577 2.926,9.397 2.975,14.249 -0.56,-4.815 -2.234,-9.38 -4.374,-13.63 -1.081,-2.123 -2.298,-4.171 -3.653,-6.105 -0.9,-1.28 -1.868,-2.514 -2.898,-3.648 -1.075,-0.472 -2.166,-0.927 -3.274,-1.366 0.558,0.945 1.072,1.916 1.491,2.922 0.599,1.346 0.961,2.775 1.272,4.188 -0.495,-1.365 -1.03,-2.706 -1.782,-3.934 -0.719,-1.238 -1.547,-2.406 -2.481,-3.475 -0.133,-0.153 -0.277,-0.291 -0.411,-0.441 -1.32,-0.484 -2.671,-0.935 -4.046,-1.361 0.064,0.097 0.14,0.191 0.204,0.289 0.732,1.099 1.35,2.27 1.853,3.479 0.534,1.196 0.856,2.472 1.134,3.73 -0.442,-1.216 -0.919,-2.413 -1.589,-3.504 -0.639,-1.103 -1.375,-2.144 -2.212,-3.096 -0.442,-0.514 -0.91,-1.007 -1.391,-1.48 -7.314,-2.049 -15.514,-3.2 -25.147,-2.824 -0.316,0.327 -0.632,0.654 -0.93,1.002 -0.835,0.951 -1.571,1.991 -2.211,3.093 -0.671,1.094 -1.148,2.287 -1.589,3.504 0.276,-1.257 0.601,-2.532 1.134,-3.728 0.502,-1.208 1.12,-2.38 1.852,-3.48 0.066,-0.098 0.141,-0.191 0.208,-0.289 -1.025,0.071 -2.048,0.173 -3.067,0.308 -0.481,0.481 -0.948,0.977 -1.393,1.496 -0.935,1.068 -1.763,2.235 -2.481,3.473 -0.753,1.228 -1.287,2.568 -1.782,3.935 0.31,-1.413 0.671,-2.843 1.271,-4.187 0.564,-1.356 1.259,-2.671 2.079,-3.906 0.121,-0.185 0.261,-0.359 0.386,-0.54 -1.201,0.205 -2.393,0.461 -3.58,0.745 -0.779,0.856 -1.521,1.75 -2.195,2.714 -0.996,1.449 -1.853,3.012 -2.607,4.632 -0.388,0.806 -0.688,1.65 -1.038,2.481 l -0.866,2.562 0.5,-2.671 c 0.231,-0.874 0.414,-1.771 0.688,-2.642 0.53,-1.748 1.179,-3.474 2.007,-5.136 0.203,-0.404 0.446,-0.792 0.668,-1.189 -1.056,0.309 -2.107,0.65 -3.151,1.014 -0.364,0.505 -0.732,1.008 -1.073,1.531 -0.938,1.43 -1.819,2.913 -2.594,4.455 -0.773,1.545 -1.502,3.123 -2.103,4.758 -0.632,1.625 -1.132,3.301 -1.598,4.994 0.216,-1.739 0.471,-3.488 0.866,-5.21 0.363,-1.737 0.868,-3.439 1.425,-5.133 0.459,-1.38 1.01,-2.732 1.605,-4.071 -0.981,0.405 -1.955,0.829 -2.922,1.273 -0.113,0.19 -0.231,0.375 -0.343,0.566 -0.832,1.428 -1.622,2.893 -2.372,4.38 -0.745,1.486 -1.449,2.998 -2.083,4.539 -0.627,1.544 -1.212,3.111 -1.535,4.761 0.068,-1.683 0.415,-3.352 0.806,-4.997 0.402,-1.645 0.879,-3.271 1.398,-4.884 0.312,-0.958 0.678,-1.904 1.022,-2.853 -0.694,0.358 -1.39,0.721 -2.078,1.098 -0.043,0.074 -0.089,0.144 -0.131,0.217 -0.832,1.43 -1.622,2.892 -2.371,4.379 -0.746,1.489 -1.45,2.998 -2.086,4.539 -0.626,1.544 -1.212,3.11 -1.534,4.761 0.069,-1.681 0.417,-3.352 0.808,-4.996 0.4,-1.646 0.877,-3.272 1.397,-4.885 0.245,-0.747 0.535,-1.485 0.8,-2.228 -0.713,0.426 -1.422,0.854 -2.123,1.299 -1.045,1.783 -2.003,3.643 -2.848,5.56 -1.007,2.284 -1.905,4.624 -2.67,7.014 -0.755,2.391 -1.384,4.831 -1.674,7.34 0.034,-2.526 0.418,-5.05 0.934,-7.534 0.526,-2.484 1.194,-4.941 1.983,-7.368 0.313,-0.966 0.668,-1.921 1.028,-2.874 -0.972,0.664 -1.932,1.342 -2.879,2.03 l -0.192,0.403 c -0.886,1.86 -1.738,3.736 -2.532,5.637 -1.564,3.805 -2.939,7.713 -3.663,11.79 0.472,-4.115 1.609,-8.137 2.949,-12.062 0.519,-1.497 1.082,-2.978 1.658,-4.453 -1.081,0.816 -2.139,1.647 -3.178,2.485 -0.697,1.484 -1.353,2.995 -1.976,4.509 -1.325,3.304 -2.552,6.674 -3.241,10.189 0.44,-3.56 1.427,-7.035 2.524,-10.451 0.318,-0.958 0.646,-1.911 0.986,-2.858 -0.775,0.644 -1.538,1.29 -2.289,1.938 -0.648,0.986 -1.256,2.002 -1.804,3.064 -0.708,1.356 -1.33,2.768 -1.902,4.209 -0.589,1.433 -1.048,2.925 -1.636,4.373 0.342,-1.515 0.554,-3.066 0.903,-4.597 0.296,-1.353 0.649,-2.701 1.066,-4.039 -0.891,0.82 -1.766,1.636 -2.612,2.448 -0.44,1.042 -0.855,2.099 -1.247,3.171 -0.545,1.452 -0.989,2.944 -1.568,4.392 0.333,-1.514 0.528,-3.061 0.83,-4.593 0.083,-0.43 0.173,-0.862 0.261,-1.292 -4.966,4.897 -9.024,9.485 -11.92,12.961 0.728,0.587 1.507,1.177 2.332,1.77 0.221,-0.552 0.456,-1.095 0.71,-1.622 1.481,-3.042 3.455,-5.78 5.788,-8.104 -1.946,2.652 -3.425,5.605 -4.367,8.663 -0.218,0.715 -0.397,1.441 -0.547,2.169 0.633,0.429 1.295,0.858 1.97,1.287 0.372,-1.265 0.798,-2.503 1.299,-3.7 1.373,-3.212 3.085,-6.277 5.301,-8.914 -1.798,2.927 -3.004,6.149 -3.854,9.405 -0.372,1.465 -0.643,2.947 -0.803,4.415 0.637,0.384 1.284,0.768 1.947,1.152 0.289,-1.337 0.627,-2.657 1.074,-3.932 1.339,-3.892 3.219,-7.473 5.087,-11.04 -1.406,3.771 -2.809,7.569 -3.612,11.443 -0.327,1.538 -0.503,3.085 -0.597,4.628 0.645,0.359 1.297,0.715 1.96,1.069 0.229,-1.607 0.523,-3.202 0.945,-4.757 1.085,-4.046 2.772,-7.837 4.675,-11.467 -1.441,3.839 -2.625,7.778 -3.177,11.771 -0.262,1.849 -0.362,3.703 -0.353,5.551 0.911,0.471 1.836,0.937 2.769,1.399 0.136,-2.787 0.47,-5.561 1.108,-8.263 0.96,-4.106 2.548,-7.991 4.467,-11.649 -1.457,3.869 -2.53,7.869 -2.96,11.91 -0.337,3.098 -0.291,6.203 0.016,9.281 0.98,0.467 1.965,0.925 2.955,1.378 -0.014,-0.157 -0.031,-0.316 -0.043,-0.473 -0.2,-3.103 -0.047,-6.171 0.34,-9.202 0.414,-3.089 1.315,-5.981 2.272,-8.856 1.005,-2.845 2.068,-5.709 3.686,-8.26 -1.391,2.672 -2.197,5.587 -2.951,8.478 -0.7,2.9 -1.34,5.863 -1.479,8.773 -0.127,2.958 -0.019,5.936 0.414,8.817 0.097,0.632 0.217,1.266 0.355,1.893 1.218,0.54 2.439,1.068 3.651,1.582 -0.185,-0.977 -0.321,-1.954 -0.429,-2.919 -0.299,-3.114 -0.257,-6.209 0.048,-9.279 0.321,-3.078 0.997,-6.086 1.926,-8.998 0.94,-2.906 2.114,-5.742 3.672,-8.347 -1.333,2.725 -2.253,5.619 -2.934,8.549 -0.671,2.931 -1.081,5.919 -1.139,8.889 -0.046,2.979 0.171,5.973 0.696,8.864 0.291,1.55 0.701,3.103 1.258,4.529 1.274,0.52 2.537,1.021 3.78,1.503 -0.823,-2.241 -1.375,-4.545 -1.71,-6.864 -0.708,-5.092 -0.478,-10.314 1.003,-15.156 -0.987,4.961 -0.669,10.066 0.498,14.864 0.594,2.399 1.425,4.735 2.536,6.881 0.263,0.505 0.546,1.001 0.843,1.482 2.161,0.804 4.237,1.537 6.178,2.186 0.506,0.169 1.011,0.318 1.516,0.48 -5.912,-6.879 -9.073,-15.354 -8.693,-23.452 0.999,-21.263 17.064,-37.297 37.368,-37.297 20.606,0 37.37,16.762 37.37,37.369 0,7.449 -2.24,14.735 -6.285,20.894 2.132,-1.086 4.24,-2.263 6.328,-3.497 0.086,-0.229 0.167,-0.467 0.256,-0.692 0.815,-1.936 1.631,-3.719 2.162,-5.65 0.562,-1.912 0.82,-3.917 1.052,-5.956 0.185,-2.011 0.53,-4.088 -0.108,-6.048 0.476,0.919 0.601,1.976 0.707,2.997 0.089,1.03 0.102,2.063 0.101,3.091 -0.01,2.039 0.007,4.135 -0.325,6.223 -0.203,1.462 -0.579,2.91 -0.969,4.309 1.225,-0.745 2.447,-1.493 3.666,-2.238 l 0.243,-0.79 c 0.52,-1.748 0.946,-3.519 1.215,-5.323 0.305,-1.804 0.259,-3.628 0.091,-5.465 -0.194,-1.826 -0.438,-3.676 -1.082,-5.417 0.82,1.674 1.254,3.51 1.634,5.337 0.378,1.829 0.537,3.727 0.585,5.623 0.023,1.518 -0.079,3.038 -0.236,4.55 0.787,-0.474 1.573,-0.944 2.36,-1.401 0.366,-0.214 0.861,-0.467 1.414,-0.738 0.25,-2.357 0.242,-4.801 0.007,-7.234 -0.145,-1.512 -0.361,-3.026 -0.663,-4.528 -0.317,-1.496 -0.659,-3.002 -1.283,-4.415 0.853,1.299 1.449,2.753 2.016,4.202 0.555,1.46 1.03,2.953 1.434,4.473 0.539,2.027 0.928,4.11 1.137,6.243 0.478,-0.22 0.974,-0.452 1.491,-0.692 0.199,-2.393 0.071,-4.913 -0.192,-7.401 -0.338,-3.02 -0.86,-6.051 -1.676,-9.016 1.296,2.798 2.321,5.728 3.177,8.723 0.575,2.095 1.075,4.222 1.356,6.44 0.804,-0.384 1.622,-0.783 2.442,-1.194 0.036,-1.867 -0.077,-3.781 -0.277,-5.678 -0.342,-3.021 -0.86,-6.051 -1.676,-9.016 1.296,2.798 2.32,5.728 3.179,8.722 0.426,1.563 0.816,3.143 1.104,4.765 0.757,-0.406 1.487,-0.821 2.201,-1.242 -0.099,-0.654 -0.214,-1.314 -0.341,-1.979 -0.289,-1.368 -0.474,-2.775 -0.701,-4.166 l -0.65,-4.181 1.566,3.932 c 0.513,1.314 1.069,2.61 1.519,3.947 0.15,0.429 0.291,0.873 0.433,1.312 0.554,-0.364 1.08,-0.731 1.569,-1.099 0.106,-0.092 0.208,-0.174 0.312,-0.266 -0.073,-0.497 -0.155,-1 -0.245,-1.513 l -1.165,-7.422 2.773,6.982 c 0.072,0.192 0.14,0.396 0.214,0.589 0.528,-0.534 0.985,-1.068 1.294,-1.598 m 4.825,-7.636 c 0.024,0.354 0.197,0.722 0.376,1.068 0.464,0.903 1.128,2.026 2.152,2.686 0.779,0.502 1.41,0.748 1.923,0.748 0.294,0 0.548,-0.079 0.77,-0.236 l 0.181,-0.087 c 0.558,-0.161 0.889,-0.581 1.067,-0.906 0.32,-0.583 0.408,-1.327 0.228,-1.946 -0.318,-1.087 -1.295,-2.059 -2.681,-2.666 -0.696,-0.306 -1.722,-0.612 -2.652,-0.337 -0.714,0.211 -1.419,0.894 -1.364,1.676 m -193.599,14.716 -0.617,-0.187 c -5.628,-2.355 -5.387,-5.889 -5.02,-7.297 1.776,-6.857 18.173,-10.344 27.935,-9.26 3.121,0.322 9.809,-6.586 16.309,-13.29 15.999,-16.492 39.754,-40.986 76.046,-40.986 1.966,0 3.969,0.073 6.011,0.22 29.02,2.12 47.487,17.207 60.97,28.221 5.764,4.71 10.739,8.776 15.327,10.951 4.351,2.065 8.113,3.708 11.432,5.158 9.151,4.001 13.743,6.01 14.793,9.995 0.523,1.983 -0.002,3.988 -1.614,6.133 -1.978,2.639 -4.345,4.157 -7.085,5.914 -2.766,1.773 -6.16,3.957 -10.497,8.144 -1.785,1.904 -3.581,3.828 -5.386,5.754 -1.339,1.56 -2.743,3.282 -4.236,5.234 -15.43,20.167 -44.148,57.701 -95.746,44.85 C 290.118,491.11 269.892,473.24 253.641,458.882 242.71,449.223 234.076,441.595 224.868,439.87 M 523.733,391.344 C 508.079,318.271 451.231,260.308 378.768,243.033 v 65.493 c 37.752,13.815 67.431,44.472 79.961,82.818 z M 288.591,243.04 C 216.14,260.321 159.305,318.281 143.654,391.344 h 65.006 c 12.525,-38.336 42.194,-68.99 79.931,-82.809 z m 0,378.111 V 555.654 C 253.747,542.895 225.786,515.78 211.838,481.519 H 145.72 c 18.144,68.953 73.311,123.039 142.871,139.632 m 34.452,-64.127 4.411,-52.023 c 4.201,0.818 8.234,1.29 12.133,1.511 l 3.972,50.573 c 6.991,-0.548 13.828,-1.651 20.454,-3.302 l -11.83,-47.539 c 4.444,-0.457 8.671,-1.286 12.69,-2.422 l 18.814,43.261 c 6.38,-2.784 12.479,-6.09 18.26,-9.853 l -24.732,-38.07 c 4.122,-1.98 7.973,-4.28 11.591,-6.778 l 29.464,32.227 c 5.079,-4.646 9.753,-9.721 14.014,-15.137 l -32.693,-25.669 c 3.665,-3.319 7.017,-6.764 10.076,-10.179 l 34.037,18.627 c 3.317,-6.039 6.127,-12.386 8.424,-18.973 l -32.743,-11.383 c 1.228,-1.581 2.395,-3.103 3.493,-4.538 2.771,-3.621 5.246,-6.477 7.47,-8.774 l 26.955,4.584 c 1.157,-6.796 1.79,-13.764 1.801,-20.88 h -9 c 0,-0.003 0.004,-0.005 0.005,-0.008 3.23,-4.307 3.06,-8.163 2.345,-10.64 -0.962,-3.343 -3.151,-5.798 -6.872,-8.116 l 11.817,-1.956 c -1.144,-6.923 -2.865,-13.653 -5.099,-20.149 l -32.127,11.018 c -4.35,-2.284 -8.79,-5.766 -13.692,-9.75 l 37.471,-20.314 c -3.304,-6.08 -7.125,-11.834 -11.355,-17.255 l -37.08,28.873 c -3.331,-2.496 -6.892,-4.972 -10.785,-7.284 l 33.902,-36.779 c -5.056,-4.663 -10.498,-8.904 -16.262,-12.694 l -28.733,43.839 c -3.544,-1.496 -7.353,-2.792 -11.42,-3.861 l 21.94,-49.892 c -6.286,-2.775 -12.83,-5.065 -19.603,-6.785 l -13.815,54.455 c -1.589,-0.198 -3.209,-0.368 -4.874,-0.489 -2.111,-0.155 -4.188,-0.229 -6.225,-0.229 -0.096,0 -0.191,0.006 -0.288,0.006 l 4.718,-57.133 c -3.426,-0.282 -6.88,-0.462 -10.378,-0.462 -3.417,0 -6.792,0.173 -10.14,0.445 l 4.682,57.95 c -3.742,0.525 -7.349,1.297 -10.821,2.275 l -14.251,-56.896 c -6.81,1.712 -13.397,3.989 -19.719,6.768 l 23.546,53.8 c -3.449,1.469 -6.741,3.123 -9.887,4.915 l -31.857,-48.852 c -5.786,3.784 -11.25,8.017 -16.321,12.677 l 38.749,42.202 c -3.214,2.282 -6.242,4.661 -9.095,7.071 L 234.954,354.91 c -4.248,5.422 -8.081,11.177 -11.405,17.26 l 46.004,25.049 c -3.454,3.329 -6.574,6.544 -9.368,9.426 -0.018,0.016 -0.034,0.034 -0.05,0.049 l -44.965,-15.52 c -2.247,6.489 -3.976,13.215 -5.136,20.133 l 38.441,6.443 c -0.504,0.35 -0.954,0.621 -1.323,0.767 -10.47,-0.987 -29.669,2.333 -32.361,12.718 -0.035,0.139 -0.081,0.35 -0.125,0.594 l -6.379,-0.016 c 0,0.094 -0.007,0.188 -0.007,0.282 0,6.902 0.583,13.666 1.662,20.268 l 23.592,-3.853 c 4.741,3.026 9.799,7.391 15.512,12.43 l -34.035,11.6 c 2.254,6.599 5.017,12.966 8.291,19.022 l 37.635,-20.288 c 3.442,2.887 7.087,5.803 11,8.671 l -37.302,28.929 c 4.224,5.438 8.876,10.525 13.921,15.2 l 34.146,-36.885 c 3.404,2.096 6.981,4.124 10.793,6.034 l -28.699,43.591 c 5.746,3.793 11.821,7.117 18.171,9.937 l 21.514,-48.605 c 3.582,1.417 7.342,2.723 11.29,3.908 L 302.585,553.6 c 6.624,1.696 13.463,2.833 20.458,3.424 m 55.725,64.134 c 69.573,-16.586 124.755,-70.676 142.901,-139.639 h -66.12 c -13.95,34.27 -41.921,61.391 -76.781,74.144 z m 177.23,-198.849 v 59.21 h -31.163 c -18.279,70.653 -74.801,126.078 -146.067,142.787 v 31.729 h -59.577 v -93.229 c -5.194,-0.574 -10.29,-1.465 -15.283,-2.627 v 95.856 H 288.591 V 624.298 C 217.34,607.582 160.831,552.164 142.552,481.519 H 95.758 v -59.21 h 106.81 c 0.385,-5.182 1.055,-10.284 2.024,-15.284 H 95.758 v -15.681 h 44.767 C 156.278,316.589 214.45,257.288 288.591,239.893 V 10.616 h 15.317 V 304.01 c 4.993,-1.16 10.089,-2.052 15.283,-2.624 V 10.616 h 59.577 v 229.27 c 74.156,17.385 132.34,76.695 148.095,151.458 h 29.135 v 15.681 h -93.201 c 0.969,5 1.639,10.102 2.023,15.284 z" /></g></g></svg>