<?xml version="1.0" encoding="UTF-8" standalone="no"?>
<!-- Created with Inkscape (http://www.inkscape.org/) -->

<svg
   xmlns:dc="http://purl.org/dc/elements/1.1/"
   xmlns:cc="http://creativecommons.org/ns#"
   xmlns:rdf="http://www.w3.org/1999/02/22-rdf-syntax-ns#"
   xmlns:svg="http://www.w3.org/2000/svg"
   xmlns="http://www.w3.org/2000/svg"
   xmlns:xlink="http://www.w3.org/1999/xlink"
   xmlns:sodipodi="http://sodipodi.sourceforge.net/DTD/sodipodi-0.dtd"
   xmlns:inkscape="http://www.inkscape.org/namespaces/inkscape"
   width="700"
   height="600"
   id="svg4505"
   version="1.1"
   inkscape:version="0.48.4 r9939"
   sodipodi:docname="Crystal_ball.svg">
  <defs
     id="defs4507">
    <linearGradient
       inkscape:collect="always"
       id="linearGradient4699">
      <stop
         style="stop-color:#999999;stop-opacity:1"
         offset="0"
         id="stop4701" />
      <stop
         style="stop-color:#1a1a1a;stop-opacity:1"
         offset="1"
         id="stop4703" />
    </linearGradient>
    <radialGradient
       inkscape:collect="always"
       xlink:href="#linearGradient4181"
       id="radialGradient4489"
       gradientUnits="userSpaceOnUse"
       gradientTransform="matrix(0.04130802,-0.60278233,2.0914794,0.14335631,-418.27309,717.61441)"
       cx="394.46457"
       cy="875.66064"
       fx="394.46457"
       fy="875.66064"
       r="138.89062" />
    <linearGradient
       inkscape:collect="always"
       id="linearGradient4181">
      <stop
         style="stop-color:#ffffff;stop-opacity:1"
         offset="0"
         id="stop4183" />
      <stop
         style="stop-color:#ffffff;stop-opacity:0"
         offset="1"
         id="stop4185" />
    </linearGradient>
    <radialGradient
       inkscape:collect="always"
       xlink:href="#linearGradient4131"
       id="radialGradient4487"
       gradientUnits="userSpaceOnUse"
       gradientTransform="matrix(1.3170549,-3.3984993e-8,3.3171615e-8,1.2855333,-125.20218,-170.40153)"
       cx="405.87457"
       cy="599.00592"
       fx="405.87457"
       fy="599.00592"
       r="138.89598" />
    <linearGradient
       inkscape:collect="always"
       id="linearGradient4131">
      <stop
         style="stop-color:#81ffff;stop-opacity:1"
         offset="0"
         id="stop4133" />
      <stop
         id="stop4141"
         offset="0.17514175"
         style="stop-color:#60ffff;stop-opacity:1" />
      <stop
         id="stop4139"
         offset="0.5931446"
         style="stop-color:#51ffff;stop-opacity:1" />
      <stop
         style="stop-color:#5a5aff;stop-opacity:1"
         offset="1"
         id="stop4135" />
    </linearGradient>
    <linearGradient
       inkscape:collect="always"
       xlink:href="#linearGradient4469"
       id="linearGradient4475"
       x1="407.87564"
       y1="463.65598"
       x2="407.87564"
       y2="765.23621"
       gradientUnits="userSpaceOnUse" />
    <linearGradient
       inkscape:collect="always"
       id="linearGradient4469">
      <stop
         style="stop-color:#ffffff;stop-opacity:1"
         offset="0"
         id="stop4471" />
      <stop
         style="stop-color:#ffffff;stop-opacity:0"
         offset="1"
         id="stop4473" />
    </linearGradient>
    <radialGradient
       inkscape:collect="always"
       xlink:href="#linearGradient4181"
       id="radialGradient4187"
       cx="394.46457"
       cy="875.66064"
       fx="394.46457"
       fy="875.66064"
       r="138.89062"
       gradientTransform="matrix(0.05542342,-0.8087596,2.8061606,0.19234272,-2134.0521,1191.7527)"
       gradientUnits="userSpaceOnUse" />
    <radialGradient
       inkscape:collect="always"
       xlink:href="#linearGradient4131"
       id="radialGradient4137"
       cx="405.87457"
       cy="599.00592"
       fx="405.87457"
       fy="599.00592"
       r="138.89598"
       gradientUnits="userSpaceOnUse"
       gradientTransform="matrix(1.3170549,-3.3984993e-8,3.3171615e-8,1.2855333,-125.20218,-170.40153)" />
    <radialGradient
       r="138.89598"
       fy="599.00592"
       fx="405.87457"
       cy="599.00592"
       cx="405.87457"
       gradientTransform="matrix(1.3170549,-3.3984993e-8,3.3171615e-8,1.2855333,-125.20218,-170.40153)"
       gradientUnits="userSpaceOnUse"
       id="radialGradient4596"
       xlink:href="#linearGradient4131"
       inkscape:collect="always" />
    <radialGradient
       inkscape:collect="always"
       xlink:href="#linearGradient4131"
       id="radialGradient4679"
       gradientUnits="userSpaceOnUse"
       gradientTransform="matrix(1.3170549,-3.3984993e-8,3.3171615e-8,1.2855333,-125.20218,-170.40153)"
       cx="405.87457"
       cy="599.00592"
       fx="405.87457"
       fy="599.00592"
       r="138.89598" />
    <linearGradient
       inkscape:collect="always"
       xlink:href="#linearGradient4699"
       id="linearGradient4705"
       x1="1185.9423"
       y1="323.59729"
       x2="430.49414"
       y2="401.57773"
       gradientUnits="userSpaceOnUse" />
    <filter
       inkscape:collect="always"
       id="filter5357"
       x="-0.348"
       width="1.696"
       y="-0.348"
       height="1.696">
      <feGaussianBlur
         inkscape:collect="always"
         stdDeviation="40.279834"
         id="feGaussianBlur5359" />
    </filter>
  </defs>
  <sodipodi:namedview
     id="base"
     pagecolor="#ffffff"
     bordercolor="#666666"
     borderopacity="1.0"
     inkscape:pageopacity="0.0"
     inkscape:pageshadow="2"
     inkscape:zoom="0.28456413"
     inkscape:cx="158.91663"
     inkscape:cy="243.29642"
     inkscape:document-units="px"
     inkscape:current-layer="text4681"
     showgrid="false"
     inkscape:window-width="1366"
     inkscape:window-height="705"
     inkscape:window-x="-8"
     inkscape:window-y="-8"
     inkscape:window-maximized="1" />
  <metadata
     id="metadata4510">
    <rdf:RDF>
      <cc:Work
         rdf:about="">
        <dc:format>image/svg+xml</dc:format>
        <dc:type
           rdf:resource="http://purl.org/dc/dcmitype/StillImage" />
        <dc:title></dc:title>
      </cc:Work>
    </rdf:RDF>
  </metadata>
  <g
     inkscape:label="Layer 1"
     inkscape:groupmode="layer"
     id="layer1"
     transform="translate(0,-452.36205)">
    <path
       transform="matrix(1.2471296,0,0,1.2471296,-145.46026,36.414909)"
       d="m 548.51283,601.3291 a 138.89598,138.89598 0 1 1 -277.79196,0 138.89598,138.89598 0 1 1 277.79196,0 z"
       sodipodi:ry="138.89598"
       sodipodi:rx="138.89598"
       sodipodi:cy="601.3291"
       sodipodi:cx="409.61685"
       id="path4707"
       style="fill:#0000ff;fill-opacity:1;fill-rule:nonzero;stroke:none;filter:url(#filter5357)"
       sodipodi:type="arc" />
    <path
       sodipodi:type="arc"
       style="fill:url(#radialGradient4596);fill-opacity:1;fill-rule:nonzero;stroke:none"
       id="path4123"
       sodipodi:cx="409.61685"
       sodipodi:cy="601.3291"
       sodipodi:rx="138.89598"
       sodipodi:ry="138.89598"
       d="m 548.51283,601.3291 a 138.89598,138.89598 0 1 1 -277.79196,0 138.89598,138.89598 0 1 1 277.79196,0 z"
       transform="matrix(1.3417109,0,0,1.3417109,-184.20233,-20.459552)" />
    <path
       style="fill:#2b1100;fill-opacity:1;fill-rule:nonzero;stroke:none"
       d="m 205.77438,882.59574 c -10.709,17.7292 8.94921,40.5257 5.28661,58.2348 -2.13949,10.3446 -32.03697,11.5924 -32.03697,24.5739 0,31.0902 83.44918,83.32476 186.37191,83.32476 102.9229,0 186.33009,-54.94516 186.33009,-83.32476 0,-13.4472 -30.01514,-14.9978 -32.30021,-25.6858 -3.69735,-17.2931 16.07638,-39.7652 5.59185,-57.1229 -32.63591,54.007 -91.91646,90.1042 -159.62173,90.1042 -67.70515,0 -126.98577,-36.0972 -159.62155,-90.1042 z"
       id="path4125"
       inkscape:connector-curvature="0"
       sodipodi:nodetypes="cssssscsc" />
    <path
       style="opacity:0.11300001;fill:url(#radialGradient4187);fill-opacity:1;fill-rule:nonzero;stroke:none"
       d="m 519.23153,938.65404 c -40.5614,38.5651 -95.41926,62.26376 -155.80618,62.26376 -58.8261,0 -112.39211,-22.47446 -152.61955,-59.28676 -3.49784,9.6029 -31.78178,11.1421 -31.78178,23.7734 0,31.0902 83.44918,83.31186 186.37191,83.31186 102.9229,0 186.33009,-54.93226 186.33009,-83.31186 0,-0.6017 -0.0939,-1.1632 -0.20957,-1.719 -0.56835,-0.8685 -0.96335,-1.824 -1.174,-2.8093 -0.0134,-0.056 -0.0309,-0.1114 -0.0416,-0.1677 -5.95894,-9.302 -28.87268,-11.7137 -30.85935,-21.0061 -0.0738,-0.3477 -0.1539,-0.6965 -0.20971,-1.0483 z"
       id="path4148"
       inkscape:connector-curvature="0" />
    <path
       transform="matrix(0.75441796,0,0,0.34904728,56.362787,682.51711)"
       d="m 548.51283,601.3291 a 138.89598,138.89598 0 1 1 -277.79196,0 138.89598,138.89598 0 1 1 277.79196,0 z"
       sodipodi:ry="138.89598"
       sodipodi:rx="138.89598"
       sodipodi:cy="601.3291"
       sodipodi:cx="409.61685"
       id="path3666"
       style="opacity:0.18269228;fill:#008080;fill-opacity:1;fill-rule:nonzero;stroke:none"
       sodipodi:type="arc" />
    <path
       sodipodi:type="arc"
       style="opacity:0.73999999;fill:url(#linearGradient4475);fill-opacity:1;fill-rule:nonzero;stroke:none"
       id="path4459"
       sodipodi:cx="409.61685"
       sodipodi:cy="601.3291"
       sodipodi:rx="138.89598"
       sodipodi:ry="138.89598"
       d="m 548.51283,601.3291 a 138.89598,138.89598 0 1 1 -277.79196,0 138.89598,138.89598 0 1 1 277.79196,0 z"
       transform="matrix(0.87265005,0,0,0.51283374,7.9329292,376.45448)" />
    <path
       transform="matrix(1.8097713,0,0,1.8097713,54.555157,-844.31217)"
       d="m 548.51283,601.3291 c 0,76.71013 -62.18585,138.89598 -138.89598,138.89598 -76.71013,0 -138.89598,-62.18585 -138.89598,-138.89598 0,-76.71013 62.18585,-138.89598 138.89598,-138.89598 76.71013,0 138.89598,62.18585 138.89598,138.89598 z"
       sodipodi:ry="138.89598"
       sodipodi:rx="138.89598"
       sodipodi:cy="601.3291"
       sodipodi:cx="409.61685"
       id="path4677"
       style="fill:none;stroke:none"
       sodipodi:type="arc" />
    <g
       transform="matrix(-0.96889508,0.24747191,-0.24747191,-0.96889508,1189.8924,838.57124)"
       style="font-size:130.29321289px;font-style:oblique;font-variant:normal;font-weight:normal;font-stretch:normal;line-height:125%;letter-spacing:0px;word-spacing:0px;fill:url(#linearGradient4705);fill-opacity:1;stroke:none;font-family:Monotype Corsiva;-inkscape-font-specification:Monotype Corsiva Oblique"
       id="text4681">
      <path
         d="m 1092.5162,315.20187 0.391,-3.28504 c 4.367,0.98963 7.6876,1.61983 9.9619,1.89063 3.2429,0.38597 5.9054,-0.18336 7.9877,-1.708 2.0822,-1.52477 3.3013,-3.78223 3.6573,-6.77239 0.5514,-4.63279 -0.6414,-8.87519 -3.5784,-12.72721 -2.9372,-3.85211 -6.4905,-6.02631 -10.6599,-6.5226 -2.2322,-0.26576 -4.3101,-0.0326 -6.2339,0.69946 -1.9238,0.73198 -4.7002,2.52643 -8.3291,5.38336 -6.5189,5.24641 -11.5311,8.60066 -15.0367,10.06276 -3.5057,1.46198 -6.8168,2.0075 -9.9333,1.63657 -4.5907,-0.54653 -8.8461,-2.4733 -12.7664,-5.78031 -3.9203,-3.30711 -6.9351,-7.85183 -9.0445,-13.63416 -2.1093,-5.78242 -2.803,-11.70594 -2.0811,-17.77058 0.712,-5.98046 2.8706,-10.83833 6.476,-14.57361 3.6054,-3.73529 7.1348,-5.39739 10.5883,-4.98628 1.8531,0.22059 3.3264,0.94056 4.4199,2.15991 1.0935,1.21934 1.5576,2.52392 1.3921,3.91375 -0.1704,1.43193 -0.8794,2.54349 -2.1268,3.33468 -0.7441,0.50939 -2.3304,0.91853 -4.7591,1.22741 -2.9441,0.33292 -5.116,0.90726 -6.5159,1.72303 -1.3998,0.81573 -2.6119,2.02757 -3.6362,3.63552 -1.0243,1.6079 -1.6568,3.42264 -1.8974,5.44422 -0.7169,6.02253 0.6885,11.5289 4.2162,16.51913 3.5277,4.99015 7.7553,7.77853 12.6829,8.36516 1.6846,0.20049 3.3926,0.11549 5.1238,-0.25499 1.7313,-0.37058 3.74,-1.18859 6.0263,-2.45403 1.5573,-0.88249 4.3625,-2.9191 8.4156,-6.10986 3.9639,-3.15874 6.6537,-5.12366 8.0697,-5.89475 2.0506,-1.08002 4.0716,-1.82182 6.0631,-2.22541 1.9914,-0.40366 3.9348,-0.49267 5.83,-0.26703 3.8325,0.4562 7.5332,2.19946 11.1021,5.2298 3.5688,3.03027 6.2564,6.73518 8.063,11.11475 1.8064,4.37947 2.3988,9.18041 1.7772,14.40283 -0.3109,2.61111 -1.0945,5.78534 -2.3509,9.52269 -0.6819,2.13981 -1.2234,3.99742 -1.6244,5.57283 -2.6273,-1.2525 -5.1217,-2.27555 -7.4831,-3.06914 -2.3616,-0.79374 -7.0906,-2.06144 -14.187,-3.8031 z"
         style="font-family:Monotype Corsiva;-inkscape-font-specification:Monotype Corsiva Oblique"
         id="path5362" />
      <path
         d="m 1041.9613,350.92132 -3.3251,1.08961 c -6.0231,-13.01386 -7.8431,-23.03546 -5.4602,-30.06482 0.9668,-2.85193 2.6695,-4.70424 5.1082,-5.55692 2.4387,-0.85271 5.7869,-0.55738 10.0447,0.88601 8.5959,2.91395 16.2666,8.42521 23.0121,16.5338 7.6924,9.1461 10.1565,17.7962 7.3923,25.95034 -0.9668,2.85186 -2.4185,4.78927 -4.355,5.81224 -1.9366,1.02284 -4.1501,1.11217 -6.6405,0.268 -2.611,-0.88514 -4.8753,-2.66039 -6.7931,-5.32574 -1.9179,-2.66546 -3.4527,-6.79086 -4.6046,-12.37623 -0.5358,-2.77913 -1.2373,-8.57014 -2.1046,-17.37304 -2.0465,-1.09684 -4.0539,-1.97885 -6.0221,-2.64604 -2.8519,-0.96681 -4.9934,-1.18895 -6.4245,-0.66641 -1.4311,0.52248 -2.4393,1.64735 -3.0249,3.37459 -0.5582,1.64686 -0.7091,3.611 -0.4524,5.89245 0.3465,3.07316 1.563,7.80721 3.6497,14.20216 z m 15.8853,-18.12653 c 0.6997,7.4474 2.1651,13.36301 4.3961,17.74684 1.5808,2.99895 3.516,4.88653 5.8056,5.66273 1.7272,0.58546 3.2562,0.59995 4.5869,0.0435 1.3306,-0.55661 2.241,-1.55791 2.7312,-3.0039 0.5038,-1.48626 0.4317,-3.12294 -0.2164,-4.91004 -0.8463,-2.39175 -2.5578,-4.74091 -5.1346,-7.0475 -3.7922,-3.34559 -7.8484,-6.17611 -12.1688,-8.49158 z"
         style="font-family:Monotype Corsiva;-inkscape-font-specification:Monotype Corsiva Oblique"
         id="path5364" />
      <path
         d="m 1019.3696,392.37511 -3.4651,0.48689 c -3.6366,-13.87128 -3.663,-24.05678 -0.079,-30.55651 1.454,-2.63706 3.4564,-4.16049 6.0072,-4.57029 2.5507,-0.40982 5.7946,0.47065 9.7316,2.64144 7.9482,4.38248 14.5282,11.15868 19.74,20.32864 5.9611,10.35804 6.8631,19.30693 2.7059,26.8467 -1.4541,2.63698 -3.2243,4.2884 -5.3108,4.95426 -2.0865,0.66574 -4.2811,0.36379 -6.5839,-0.90584 -2.4142,-1.3312 -4.3304,-3.47753 -5.7488,-6.43901 -1.4183,-2.96159 -2.2026,-7.29285 -2.3526,-12.99378 -0.038,-2.83005 0.2916,-8.65408 0.9884,-17.47211 -1.8213,-1.44017 -3.6419,-2.66197 -5.4619,-3.66541 -2.637,-1.45403 -4.7059,-2.0499 -6.2066,-1.7876 -1.5008,0.26224 -2.6914,1.19192 -3.572,2.78903 -0.8397,1.52277 -1.3341,3.42964 -1.4833,5.72062 -0.2002,3.08615 0.1635,7.96047 1.0911,14.62297 z m 18.8297,-15.04509 c -0.623,7.45423 -0.2225,13.53546 1.2015,18.24371 1.0278,3.23051 2.6003,5.42944 4.7174,6.59679 1.5971,0.88054 3.0995,1.1641 4.5074,0.85069 1.4079,-0.31352 2.4805,-1.1388 3.2177,-2.47584 0.7577,-1.37429 0.975,-2.99808 0.6518,-4.87139 -0.4117,-2.50342 -1.6827,-5.11733 -3.813,-7.84173 -3.1435,-3.96123 -6.6378,-7.46197 -10.4828,-10.50223 z"
         style="font-family:Monotype Corsiva;-inkscape-font-specification:Monotype Corsiva Oblique"
         id="path5366" />
      <path
         d="m 1008.334,444.77639 3.5369,0.75897 -1.2118,5.55106 c -1.149,5.4325 -2.0914,9.115 -2.8273,11.04752 -0.4161,1.10003 -0.9464,1.9574 -1.591,2.57213 -0.6446,0.61462 -1.6097,0.83169 -2.8954,0.65122 -5.95006,-0.83133 -12.60463,-3.26179 -19.9637,-7.29139 -7.35907,-4.02969 -13.62901,-8.76094 -18.80985,-14.19377 -0.67319,-0.706 -1.66695,-1.80957 -2.98128,-3.3107 3.91572,14.4925 8.55179,24.54729 13.90821,30.16438 1.11228,1.16632 2.85132,2.46757 5.21714,3.90378 2.60141,1.62166 4.34116,2.89294 5.21926,3.81383 0.84884,0.89006 1.2674,1.89747 1.25569,3.02223 -0.0117,1.12462 -0.44728,2.09674 -1.30672,2.91638 -1.07429,1.02438 -2.33655,1.43689 -3.78677,1.23753 -1.45022,-0.19951 -2.90708,-1.06658 -4.37059,-2.60121 -3.77584,-3.95962 -7.57554,-9.75718 -11.39911,-17.39268 -3.82352,-7.63563 -7.03555,-16.70412 -9.63611,-27.20552 -2.60049,-10.50146 -3.87025,-18.93135 -3.80929,-25.28969 0.061,-6.35836 0.90735,-11.67809 2.53893,-15.95922 1.63165,-4.28111 3.78266,-7.69492 6.45303,-10.24144 2.02584,-1.93181 3.91143,-3.01199 5.65678,-3.24056 1.74539,-0.22852 3.11567,0.17901 4.11084,1.22259 0.87812,0.92085 1.2328,2.09173 1.06405,3.51266 -0.16873,1.42097 -0.92837,2.77539 -2.27893,4.06326 -1.04358,0.9952 -2.66112,2.15675 -4.85261,3.48465 -2.34349,1.41431 -3.86823,2.45807 -4.57422,3.13127 -1.87232,1.78549 -3.1057,4.45611 -3.70016,8.01188 -0.80561,4.87072 -0.62525,9.59235 0.54109,14.16492 1.1664,4.57254 3.19846,8.37818 6.09618,11.41693 4.06857,4.26646 9.57824,8.79967 16.52902,13.59963 6.9508,4.79988 13.06929,7.69759 18.35549,8.69315 2.68703,0.54375 4.67503,0.20097 5.96423,-1.02833 1.504,-1.43428 2.6867,-4.4961 3.548,-9.18546 z"
         style="font-family:Monotype Corsiva;-inkscape-font-specification:Monotype Corsiva Oblique"
         id="path5368" />
      <path
         d="m 942.2568,511.94953 c -3.53288,2.18969 -7.34239,2.60482 -11.42852,1.24538 -4.08609,-1.35957 -7.68209,-4.54479 -10.788,-9.55567 -4.96044,-8.00314 -6.60068,-16.92896 -4.92073,-26.77747 1.68003,-9.84859 5.65636,-16.71683 11.92903,-20.60475 3.85736,-2.39087 7.74873,-3.05634 11.6741,-1.99639 3.92539,1.05992 7.23992,3.7709 9.9436,8.13296 4.69234,7.57047 6.86417,15.90482 6.5155,25.00309 -0.50542,11.341 -4.81374,19.52528 -12.92498,24.55285 z m 2.08262,-6.90454 c 3.06425,-1.89934 4.67193,-5.92721 4.82304,-12.08361 0.15112,-6.1565 -2.16418,-13.09207 -6.94591,-20.80672 -2.90477,-4.68652 -6.0783,-7.8342 -9.5206,-9.44304 -2.52672,-1.17837 -4.87159,-1.09721 -7.03461,0.24348 -3.02817,1.87692 -4.62408,5.46086 -4.78773,10.75185 -0.15586,6.83303 2.00064,13.85455 6.46951,21.06458 3.3517,5.40744 6.47257,8.81231 9.36262,10.21461 2.89008,1.40218 5.43464,1.4218 7.63368,0.0589 z"
         style="font-family:Monotype Corsiva;-inkscape-font-specification:Monotype Corsiva Oblique"
         id="path5370" />
      <path
         d="m 871.61029,538.54996 -8.54443,2.93358 -1.55384,-22.94199 c -0.85733,-13.33803 -1.57525,-20.84943 -2.15374,-22.53423 -0.26164,-0.7622 -0.64186,-1.28188 -1.14067,-1.55905 -0.49871,-0.27722 -0.96872,-0.34007 -1.41003,-0.18854 -0.6819,0.23411 -1.38089,0.81042 -2.09699,1.72894 -1.00696,1.37711 -2.71531,4.56455 -5.12506,9.56234 l -2.75006,-1.54462 c 5.18461,-11.1523 9.68234,-17.38264 13.49318,-18.69103 1.28372,-0.44074 2.54556,-0.32464 3.78553,0.34829 1.24005,0.67291 2.16994,1.91196 2.78967,3.71713 0.71622,2.08595 1.23216,5.02541 1.54782,8.81841 2.16543,-5.31748 5.34539,-10.42274 9.53988,-15.31578 2.7876,-3.24408 5.46505,-5.30684 8.03237,-6.18829 1.40403,-0.48205 2.66557,-0.39948 3.78462,0.24771 1.11908,0.64718 2.02293,1.97364 2.71155,3.97938 0.53715,1.56446 0.93509,3.31126 1.19381,5.24038 0.3462,2.70626 0.76466,8.23526 1.25538,16.58703 0.63155,10.59037 1.27786,16.84832 1.93894,18.77387 0.38564,1.12316 0.97961,1.54704 1.78189,1.27164 0.72207,-0.24796 1.57749,-0.95645 2.56624,-2.12548 0.98877,-1.16912 2.49852,-3.6942 4.52925,-7.57525 l 3.37064,1.19702 c -3.72265,6.65926 -6.73977,11.22654 -9.05138,13.70187 -2.31161,2.47522 -4.32987,4.00897 -6.05482,4.60125 -0.96274,0.33049 -1.86548,0.24805 -2.70824,-0.24731 -0.84273,-0.49547 -1.51889,-1.4853 -2.0285,-2.96949 -0.9503,-2.76797 -1.84064,-10.06322 -2.67102,-21.88577 -0.77941,-10.62935 -1.40326,-16.62595 -1.87155,-17.98983 -0.2892,-0.84243 -0.80788,-1.47153 -1.55605,-1.8873 -0.74811,-0.4158 -1.4431,-0.51352 -2.08496,-0.29314 -2.24639,0.77126 -4.79852,3.72149 -7.65639,8.8507 -2.8578,5.12917 -4.11597,10.28089 -3.7745,15.45519 z"
         style="font-family:Monotype Corsiva;-inkscape-font-specification:Monotype Corsiva Oblique"
         id="path5372" />
      <path
         d="m 826.10044,493.54796 9.39651,-1.2504 -2.15703,17.5516 c -1.03641,8.60973 -1.85551,16.76268 -2.4573,24.45888 -0.1322,1.90018 -0.16754,3.08153 -0.10602,3.54404 0.13429,1.00897 0.66389,1.45194 1.58881,1.32891 0.63066,-0.084 1.54029,-0.64358 2.7289,-1.67884 1.18864,-1.03535 3.2591,-3.48231 6.21137,-7.34087 l 2.24869,1.94708 c -3.45982,4.86742 -7.05321,8.65089 -10.78016,11.35042 -3.72692,2.69942 -6.66247,4.19182 -8.80666,4.47721 -0.75674,0.10064 -1.37963,0.002 -1.86866,-0.29688 -0.48897,-0.29867 -0.76983,-0.72126 -0.84259,-1.26775 -0.0727,-0.54661 0.008,-2.03344 0.24078,-4.4605 l 1.20959,-11.64928 c -3.35672,7.24978 -7.3887,13.60535 -12.09594,19.06673 -2.26245,2.6115 -4.25556,4.03198 -5.97935,4.26142 -1.26123,0.16778 -2.36684,-0.10227 -3.31683,-0.81014 -0.9499,-0.708 -1.4976,-1.60852 -1.64311,-2.70157 -0.15101,-1.13521 0.13023,-2.15673 0.84371,-3.06458 0.71358,-0.90796 2.63728,-2.12665 5.77109,-3.65609 2.97132,-1.46511 5.33654,-3.06347 7.09567,-4.79506 1.7592,-1.73168 3.60406,-4.26628 5.53457,-7.6038 1.93058,-3.33761 3.20866,-6.19257 3.83426,-8.56489 0.62565,-2.37239 1.33894,-7.78359 2.13987,-16.23362 z"
         style="font-family:Monotype Corsiva;-inkscape-font-specification:Monotype Corsiva Oblique"
         id="path5374" />
      <path
         d="m 760.94441,542.78242 -15.05472,-2.13328 c -3.96523,10.14727 -7.9066,17.55642 -11.82413,22.22746 -3.91744,4.67091 -8.64755,8.12369 -14.19035,10.35835 -5.54267,2.2345 -10.58169,3.03046 -15.11708,2.38788 -2.56153,-0.36307 -4.42183,-1.14072 -5.5809,-2.33296 -1.15891,-1.19239 -1.64022,-2.48144 -1.44393,-3.86715 0.1786,-1.25989 0.7683,-2.24724 1.76909,-2.96208 1.00096,-0.71499 2.21529,-0.97128 3.643,-0.76889 1.46985,0.2082 4.17895,1.04187 8.1273,2.50101 1.95625,0.70549 3.50126,1.13861 4.63502,1.29935 2.77164,0.39266 5.51275,-0.96452 8.22333,-4.07155 2.71069,-3.10717 5.15146,-7.48406 7.32234,-13.1307 l 5.05073,-12.97068 -16.62948,-2.35642 1.64158,-4.32951 16.81846,2.3832 15.64719,-38.77763 c 4.79718,-11.78575 11.01203,-20.35061 18.64458,-25.69461 7.63257,-5.34395 15.39625,-7.45658 23.29106,-6.33791 2.64558,0.37492 4.57788,1.17348 5.79691,2.39569 1.21898,1.22226 1.72137,2.58927 1.50717,4.10101 -0.18449,1.30183 -0.80419,2.27423 -1.85911,2.9172 -1.05497,0.64301 -2.4643,0.83955 -4.22802,0.5896 -0.88188,-0.12494 -2.16881,-0.41439 -3.86078,-0.86835 -2.88601,-0.79446 -5.6728,-1.38212 -8.36039,-1.76298 -4.15737,-0.58908 -7.31926,-0.0412 -9.48568,1.64373 -2.16641,1.68495 -4.733,6.19395 -7.69978,13.52701 l -20.07056,49.58827 15.05472,2.13328 z"
         style="font-family:Monotype Corsiva;-inkscape-font-specification:Monotype Corsiva Oblique"
         id="path5376" />
      <path
         d="m 670.87137,521.26352 -8.5037,-3.04965 13.12447,-18.88115 c 7.66625,-10.94837 11.80001,-17.26094 12.4013,-18.93773 0.27209,-0.75854 0.30004,-1.40185 0.0838,-1.92996 -0.21608,-0.52808 -0.54373,-0.87087 -0.98294,-1.02838 -0.67865,-0.24338 -1.5845,-0.23031 -2.71755,0.0392 -1.64673,0.44578 -4.97236,1.86649 -9.97691,4.26214 l -1.18159,-2.92448 c 11.01705,-5.46614 18.4219,-7.51914 22.21458,-6.15899 1.2776,0.45818 2.19012,1.3374 2.73757,2.63765 0.54754,1.30029 0.49914,2.8487 -0.14519,4.64524 -0.74447,2.07603 -2.1787,4.69321 -4.30269,7.85156 5.01362,-2.79792 10.68662,-4.79613 17.01901,-5.99464 4.20356,-0.79046 7.58288,-0.72753 10.13796,0.18879 1.39734,0.50112 2.33058,1.35398 2.79973,2.55856 0.46918,1.2046 0.34582,2.80498 -0.37007,4.80115 -0.55837,1.55701 -1.33937,3.16937 -2.34299,4.83707 -1.42099,2.32904 -4.54964,6.90687 -9.38595,13.7335 -6.12537,8.66225 -9.5317,13.95155 -10.21898,15.8679 -0.40086,1.11783 -0.20207,1.81993 0.59636,2.10632 0.71866,0.25768 1.82922,0.23917 3.33169,-0.0555 1.50254,-0.29477 4.25919,-1.32251 8.26997,-3.08322 l 1.88327,3.04094 c -7.06782,2.87222 -12.2775,4.55222 -15.62905,5.03999 -3.35147,0.4877 -5.88558,0.42374 -7.60233,-0.19187 -0.95812,-0.34366 -1.61135,-0.97219 -1.95969,-1.88557 -0.34824,-0.91346 -0.25751,-2.10876 0.27219,-3.58589 0.98796,-2.75475 4.85203,-9.00634 11.59223,-18.75478 6.0343,-8.78508 9.29484,-13.85631 9.78161,-15.2137 0.3007,-0.83839 0.28893,-1.65366 -0.0353,-2.4458 -0.32418,-0.79214 -0.80566,-1.30275 -1.44447,-1.53183 -2.23568,-0.80178 -6.07178,-0.0936 -11.50831,2.12463 -5.43645,2.21821 -9.6382,5.45371 -12.60528,9.70652 z"
         style="font-family:Monotype Corsiva;-inkscape-font-specification:Monotype Corsiva Oblique"
         id="path5378" />
      <path
         d="m 625.35108,508.57966 -10.65679,-1.95389 13.18607,-12.82308 -11.24319,-6.85716 3.22101,-3.32634 11.24319,6.85716 15.87706,-15.28038 c 4.81936,-4.56225 7.88051,-7.91156 9.18346,-10.04795 0.5963,-0.97766 0.81873,-1.81074 0.66731,-2.49924 -0.15138,-0.68848 -0.58918,-1.25356 -1.31341,-1.69526 -1.12248,-0.6846 -3.25101,-1.06372 -6.38559,-1.13735 -4.12373,-0.0808 -8.2462,0.16213 -12.36742,0.72873 l -0.54016,-3.75729 c 11.57392,-1.13817 19.10918,-1.56003 22.60581,-1.26558 3.49668,0.29448 6.05973,0.93861 7.68916,1.93239 1.33978,0.81713 2.10078,1.95193 2.28301,3.4044 0.18225,1.45248 -0.4002,3.28313 -1.74736,5.49193 -1.59005,2.60711 -4.7073,6.17061 -9.35177,10.69048 l -18.77875,18.20533 8.79902,5.36647 -3.32964,3.26009 -8.7447,-5.33335 z"
         style="font-family:Monotype Corsiva;-inkscape-font-specification:Monotype Corsiva Oblique"
         id="path5380" />
      <path
         d="m 571.78329,449.54379 -6.61361,-6.15414 19.50334,-12.1807 c 11.36055,-7.04102 17.64754,-11.21358 18.86099,-12.5177 0.54901,-0.58991 0.82822,-1.17015 0.83766,-1.74072 0.01,-0.5705 -0.15651,-1.01467 -0.4981,-1.33252 -0.52781,-0.49115 -1.3655,-0.83612 -2.51307,-1.03494 -1.68913,-0.23928 -5.30552,-0.24419 -10.84916,-0.0147 l 0.0666,-3.15345 c 12.27962,-0.68194 19.89427,0.34947 22.84396,3.09424 0.99363,0.9246 1.4858,2.09228 1.47652,3.50306 -0.009,1.41083 -0.66393,2.81485 -1.96413,4.21206 -1.50239,1.61462 -3.85197,3.45476 -7.04877,5.52043 5.71052,-0.59561 11.71188,-0.19637 18.00411,1.19771 4.17488,0.93014 7.2559,2.31977 9.24307,4.16888 1.08675,1.01126 1.60836,2.16288 1.56481,3.45486 -0.0435,1.29201 -0.78761,2.71426 -2.23225,4.26674 -1.1268,1.21094 -2.48002,2.38502 -4.05965,3.52222 -2.22387,1.58053 -6.90343,4.55487 -14.0387,8.92302 -9.04343,5.54718 -14.25858,9.06596 -15.64548,10.55637 -0.80894,0.86938 -0.90294,1.593 -0.282,2.17087 0.55895,0.52005 1.58692,0.94071 3.08394,1.26198 1.4971,0.32123 4.43568,0.46307 8.81575,0.4255 l 0.53242,3.53703 c -7.62774,-0.14567 -13.07788,-0.65477 -16.35041,-1.52731 -3.27243,-0.87259 -5.57624,-1.93007 -6.91144,-3.17243 -0.74514,-0.69344 -1.0978,-1.52853 -1.05798,-2.50528 0.0399,-0.97678 0.59439,-2.03958 1.66335,-3.1884 1.99366,-2.14245 8.00875,-6.36525 18.0453,-12.66841 9.00814,-5.69596 14.00336,-9.07179 14.98569,-10.12749 0.60677,-0.65204 0.91725,-1.40596 0.93145,-2.26177 0.0142,-0.85578 -0.22705,-1.51482 -0.72387,-1.97712 -1.73876,-1.61797 -5.5435,-2.47889 -11.41424,-2.58274 -5.87065,-0.10383 -11.00746,1.21391 -15.41044,3.9532 z"
         style="font-family:Monotype Corsiva;-inkscape-font-specification:Monotype Corsiva Oblique"
         id="path5382" />
      <path
         d="m 589.97988,388.24092 5.54603,7.68761 -16.4845,6.40101 c -8.07601,3.15904 -15.64678,6.29351 -22.71235,9.40342 -1.73672,0.78226 -2.79429,1.30987 -3.1727,1.58284 -0.82547,0.59554 -0.96527,1.27167 -0.4194,2.0284 0.37227,0.51594 1.29556,1.05271 2.76989,1.61032 1.47442,0.55758 4.60965,1.22445 9.4057,2.00061 l -0.65195,2.90219 c -5.92498,-0.74619 -10.95809,-2.12273 -15.09934,-4.12964 -4.14114,-2.00693 -6.8445,-3.8875 -8.1101,-5.64171 -0.4466,-0.61914 -0.65402,-1.21475 -0.62227,-1.78684 0.0319,-0.57208 0.27137,-1.01942 0.71846,-1.34201 0.44722,-0.32259 1.79519,-0.95511 4.04392,-1.89756 l 10.83599,-4.44411 c -7.97525,0.47146 -15.48201,-0.075 -22.52031,-1.6393 -3.37102,-0.7582 -5.56526,-1.84243 -6.58273,-3.25269 -0.74435,-1.03189 -1.02935,-2.13374 -0.85499,-3.30556 0.17452,-1.1718 0.7089,-2.08029 1.60313,-2.72548 0.92878,-0.66998 1.96184,-0.90534 3.09918,-0.7061 1.13749,0.19927 3.12111,1.31777 5.95088,3.35551 2.69625,1.92499 5.22321,3.25294 7.5809,3.98386 2.3578,0.73094 5.46355,1.15759 9.31724,1.27994 3.8538,0.12238 6.97374,-0.10187 9.35982,-0.67273 2.38617,-0.57084 7.49122,-2.50175 15.31515,-5.79274 z"
         style="font-family:Monotype Corsiva;-inkscape-font-specification:Monotype Corsiva Oblique"
         id="path5384" />
      <path
         d="m 546.19273,342.27083 1.57979,-3.12216 c 13.46261,4.93921 21.83767,10.73605 25.12521,17.39054 1.33382,2.69984 1.44034,5.21361 0.31957,7.54129 -1.12075,2.3277 -3.6965,4.48721 -7.72724,6.47852 -8.1375,4.02021 -17.45808,5.54996 -27.96176,4.58924 -11.90692,-1.02433 -19.76719,-5.39611 -23.58081,-13.11536 -1.33374,-2.69981 -1.67792,-5.09616 -1.03255,-7.18905 0.6455,-2.09285 2.14702,-3.72165 4.50456,-4.88641 2.47173,-1.22106 5.32807,-1.56779 8.56901,-1.04017 3.24104,0.52766 7.244,2.35826 12.00889,5.49177 2.34448,1.58558 6.93648,5.18301 13.776,10.79229 2.2225,-0.6722 4.26536,-1.46856 6.1286,-2.38909 2.69985,-1.33379 4.37078,-2.69149 5.0128,-4.07309 0.64206,-1.38157 0.55918,-2.88992 -0.24864,-4.52505 -0.77021,-1.55904 -2.05288,-3.05416 -3.848,-4.48537 -2.41866,-1.9273 -6.62713,-4.41327 -12.62543,-7.4579 z m 1.59205,24.0495 c -5.76237,-4.76955 -10.98247,-7.91475 -15.66032,-9.43561 -3.23868,-1.00181 -5.94178,-0.96733 -8.1093,0.10346 -1.63505,0.80781 -2.72609,1.87902 -3.27312,3.21363 -0.54692,1.33464 -0.48225,2.68641 0.19398,4.05533 0.69515,1.40696 1.9038,2.51289 3.62598,3.31777 2.28995,1.09214 5.16144,1.54214 8.61448,1.35001 5.04703,-0.31727 9.91646,-1.18547 14.6083,-2.60459 z"
         style="font-family:Monotype Corsiva;-inkscape-font-specification:Monotype Corsiva Oblique"
         id="path5386" />
      <path
         d="m 528.93206,248.20019 2.09844,-1.96815 c 4.83103,3.25621 8.79507,6.74235 11.89212,10.45845 2.11465,2.52752 3.29996,4.69411 3.55595,6.49977 0.20837,1.46981 -0.21136,2.73946 -1.25918,3.80897 -1.04781,1.06958 -2.81052,1.77998 -5.28813,2.13118 -1.67972,0.23817 -4.17494,0.23851 -7.48566,0.001 -3.3107,-0.23742 -10.4864,-1.22278 -21.52713,-2.95608 -5.40953,-0.68952 -8.55525,-0.97179 -9.43715,-0.84682 -1.42772,0.20246 -2.0404,1.01755 -1.83804,2.44528 0.25008,1.76375 1.44449,3.84338 3.58321,6.23888 2.95954,3.35015 6.5314,6.18508 10.71557,8.5048 2.69164,1.46044 6.50844,2.39723 11.45043,2.81036 l 22.63488,1.93158 1.33055,9.38549 c -7.63457,-0.97384 -13.85987,-1.67627 -18.67592,-2.10729 l -41.75221,-3.52652 c -7.67087,-0.62598 -13.70648,-2.02999 -18.10685,-4.21203 -4.40022,-2.182 -8.1112,-5.31848 -11.13298,-9.40946 -3.02159,-4.09092 -4.83903,-8.29905 -5.45231,-12.62439 -0.25589,-1.80567 -0.0174,-3.29594 0.71556,-4.47084 0.73312,-1.1748 1.77152,-1.85748 3.11521,-2.04803 1.13391,-0.16069 2.20418,0.21233 3.21081,1.11908 1.0068,0.90684 1.63518,2.24209 1.88513,4.00576 0.14296,1.00788 0.22253,2.32456 0.2387,3.95003 0.008,3.68289 0.11041,6.21721 0.30678,7.60295 0.27394,1.93172 1.27406,3.39633 3.00037,4.39384 1.72648,0.99756 5.55849,1.73942 11.49604,2.22559 l 32.11716,2.64349 c -5.95755,-4.25301 -11.15879,-9.06306 -15.60372,-14.43017 -2.62976,-3.13979 -4.09351,-5.75954 -4.39123,-7.85924 -0.23212,-1.63769 0.0797,-2.98844 0.93554,-4.05224 0.85593,-1.0637 2.16572,-1.7206 3.92938,-1.97069 1.42782,-0.20236 2.87941,-0.23679 4.35475,-0.10331 2.55504,0.19472 7.22989,0.83851 14.02456,1.93138 9.37355,1.45561 15.18636,2.27007 17.43845,2.44337 2.25213,0.1734 4.23905,0.13804 5.96076,-0.1061 0.6719,-0.0952 1.15945,-0.28212 1.46264,-0.56076 0.30322,-0.27854 0.42207,-0.6488 0.35658,-1.11077 -0.14287,-1.00779 -1.60757,-2.72781 -4.39412,-5.16009 -1.52204,-1.36914 -3.34369,-3.03856 -5.46494,-5.00827 z"
         style="font-family:Monotype Corsiva;-inkscape-font-specification:Monotype Corsiva Oblique"
         id="path5388" />
      <path
         d="m 530.32471,205.68401 2.9189,-1.92966 c 9.24829,10.95932 13.65223,20.14356 13.21183,27.55276 -0.17868,3.00604 -1.33133,5.2425 -3.45794,6.70938 -2.12662,1.46691 -5.43386,2.06698 -9.92174,1.80021 -9.0604,-0.53854 -17.9149,-3.82657 -26.56352,-9.8641 -9.83609,-6.78788 -14.49872,-14.47918 -13.9879,-23.07392 0.17873,-3.00598 1.06676,-5.25817 2.66409,-6.75657 1.59744,-1.4983 3.70862,-2.16946 6.33356,-2.01348 2.75204,0.16363 5.40507,1.27731 7.95911,3.34103 2.5541,2.06382 5.12468,5.6369 7.71174,10.71924 1.25123,2.53871 3.45831,7.93841 6.62124,16.19911 2.26364,0.51696 4.43274,0.83709 6.50731,0.96038 3.00604,0.1787 5.1301,-0.17304 6.37219,-1.05521 1.24211,-0.88212 1.91726,-2.23347 2.02547,-4.05405 0.10319,-1.73585 -0.27046,-3.67002 -1.12094,-5.80251 -1.14638,-2.87232 -3.57085,-7.11652 -7.2734,-12.73261 z m -10.52982,21.68031 c -2.64317,-6.99765 -5.61989,-12.31563 -8.93017,-15.95396 -2.31718,-2.47453 -4.68243,-3.78354 -7.09575,-3.92703 -1.82052,-0.10817 -3.29892,0.28194 -4.43521,1.17034 -1.13621,0.88849 -1.74964,2.0948 -1.84028,3.61894 -0.0931,1.56656 0.40907,3.12597 1.50642,4.67825 1.44829,2.08305 3.71983,3.89635 6.81464,5.43989 4.5415,2.22442 9.20161,3.88227 13.98035,4.97357 z"
         style="font-family:Monotype Corsiva;-inkscape-font-specification:Monotype Corsiva Oblique"
         id="path5390" />
      <path
         d="m 551.56642,184.42935 -2.11717,9.23989 -15.68676,-8.16315 c -7.70254,-3.98402 -15.05325,-7.6046 -22.05215,-10.86177 -1.73375,-0.78885 -2.82802,-1.23538 -3.28281,-1.33962 -0.99217,-0.22731 -1.59247,0.11378 -1.80091,1.02326 -0.14205,0.62016 0.0638,1.66812 0.61764,3.14387 0.55389,1.47582 2.12151,4.2717 4.70286,8.38765 l -2.61093,1.42507 c -3.34877,-4.94448 -5.63541,-9.63472 -6.8599,-14.07074 -1.22441,-4.43595 -1.59508,-7.70815 -1.11201,-9.81662 0.17055,-0.74411 0.48124,-1.29297 0.93207,-1.64659 0.45091,-0.35352 0.94506,-0.46873 1.48246,-0.34563 0.53749,0.12319 1.90221,0.71872 4.09416,1.78659 l 10.48927,5.20998 c -5.61656,-5.68164 -10.15914,-11.68289 -13.62776,-18.00377 -1.65457,-3.03332 -2.28769,-5.39751 -1.89935,-7.09259 0.28423,-1.24019 0.92413,-2.18137 1.91971,-2.82355 0.99566,-0.64205 2.03091,-0.83996 3.10576,-0.59374 1.11626,0.25583 1.97476,0.87679 2.5755,1.86287 0.60081,0.98621 1.0692,3.21476 1.40518,6.68565 0.33259,3.29616 1.00211,6.07118 2.00856,8.32507 1.00651,2.25399 2.73518,4.86921 5.18602,7.84567 2.45089,2.97655 4.67802,5.17296 6.68138,6.58923 2.0034,1.41635 6.82277,3.97829 14.45813,7.68582 z"
         style="font-family:Monotype Corsiva;-inkscape-font-specification:Monotype Corsiva Oblique"
         id="path5392" />
      <path
         d="m 557.27373,121.19723 3.38938,-0.86929 c 5.15696,13.3807 6.31615,23.50005 3.47756,30.35808 -1.15167,2.78243 -2.97216,4.51913 -5.4615,5.21011 -2.48933,0.69101 -5.81101,0.17682 -9.96504,-1.54257 -8.3864,-3.47119 -15.67929,-9.47344 -21.87868,-18.00678 -7.07629,-9.63069 -8.96806,-18.42372 -5.67532,-26.37912 1.15169,-2.78235 2.72726,-4.62043 4.7267,-5.51424 1.99951,-0.89369 4.2141,-0.83773 6.64379,0.16788 2.54729,1.0544 4.69042,2.97426 6.42937,5.7596 1.73899,2.78545 3.00011,7.0026 3.78335,12.65146 0.35246,2.80827 0.67284,8.63281 0.96117,17.47364 1.97022,1.22863 3.91546,2.24034 5.83571,3.03512 2.78241,1.15169 4.90474,1.51373 6.36699,1.08613 1.46225,-0.42755 2.54212,-1.48389 3.2396,-3.16904 0.66504,-1.60672 0.94429,-3.55675 0.83776,-5.85011 -0.1443,-3.08927 -1.04791,-7.89289 -2.71084,-14.41087 z m -17.03938,17.04619 c -0.21008,-7.47725 -1.28453,-13.4762 -3.22335,-17.99685 -1.38081,-3.09613 -3.1881,-5.1065 -5.42189,-6.03113 -1.6851,-0.69743 -3.2098,-0.81211 -4.5741,-0.34404 -1.36425,0.46818 -2.33836,1.40764 -2.92233,2.81839 -0.60013,1.45004 -0.63543,3.08793 -0.10589,4.91367 0.68765,2.44208 2.24152,4.89839 4.6616,7.36893 3.56465,3.58699 7.42663,6.67733 11.58596,9.27103 z"
         style="font-family:Monotype Corsiva;-inkscape-font-specification:Monotype Corsiva Oblique"
         id="path5394" />
      <path
         d="m 569.13288,106.4818 c 0.84796,-1.42021 2.09716,-2.29214 3.74761,-2.61579 1.65045,-0.3236 3.29504,0.004 4.93378,0.98218 2.36704,1.41328 3.88726,3.0866 4.56065,5.01995 0.67338,1.93339 0.49912,3.75586 -0.52277,5.46741 -0.84796,1.42024 -2.06075,2.31391 -3.63836,2.68101 -1.57763,0.36712 -3.14938,0.0832 -4.71528,-0.85172 -2.29422,-1.36976 -3.89487,-3.2393 -4.80197,-5.60861 -0.68751,-1.7442 -0.54207,-3.43568 0.43634,-5.07443 z"
         style="font-family:Monotype Corsiva;-inkscape-font-specification:Monotype Corsiva Oblique"
         id="path5396" />
      <path
         d="m 586.32362,81.518807 c 1.00425,-1.314352 2.34466,-2.038278 4.02124,-2.17178 1.67657,-0.133455 3.27315,0.379177 4.78974,1.537899 2.19062,1.673763 3.51029,3.509386 3.95903,5.506872 0.44871,1.99752 0.0679,3.788266 -1.14228,5.372243 -1.00426,1.314384 -2.31097,2.06406 -3.92014,2.24903 -1.60918,0.184987 -3.13835,-0.276146 -4.58753,-1.3834 -2.12322,-1.622232 -3.50045,-3.661959 -4.1317,-6.119188 -0.48431,-1.81118 -0.1471,-3.47507 1.01164,-4.991676 z"
         style="font-family:Monotype Corsiva;-inkscape-font-specification:Monotype Corsiva Oblique"
         id="path5398" />
      <path
         d="m 606.23744,58.675886 c 1.14699,-1.191819 2.56094,-1.75886 4.24183,-1.701123 1.68089,0.05778 3.20893,0.748392 4.58414,2.071829 1.98639,1.911682 3.08909,3.885281 3.30811,5.920802 0.21899,2.035552 -0.36264,3.77148 -1.74491,5.207791 -1.14701,1.19185 -2.53039,1.7883 -4.15015,1.789352 -1.61978,0.0011 -3.08671,-0.630719 -4.40078,-1.895367 -1.92529,-1.852831 -3.062,-4.03575 -3.41014,-6.548765 -0.27553,-1.85446 0.24844,-3.469298 1.5719,-4.844519 z"
         style="font-family:Monotype Corsiva;-inkscape-font-specification:Monotype Corsiva Oblique"
         id="path5400" />
    </g>
  </g>
</svg>
