<?xml version="1.0" encoding="utf-8"?>

<!DOCTYPE svg PUBLIC "-//W3C//DTD SVG 1.1//EN" "http://www.w3.org/Graphics/SVG/1.1/DTD/svg11.dtd">
<svg version="1.1" id="Layer_1" xmlns="http://www.w3.org/2000/svg" xmlns:xlink="http://www.w3.org/1999/xlink" x="0px" y="0px"
	 viewBox="0 0 1703.809 1703.809" enable-background="new 0 0 1703.809 1703.809" xml:space="preserve">
<g>
	<g>
		<g>
			<rect x="854.782" y="850.243" transform="matrix(0.5 -0.866 0.866 0.5 -309.1981 1166.3434)" width="1.404" height="1.404"/>
			<rect x="854.782" y="852.162" transform="matrix(0.866 -0.5 0.5 0.866 -311.8186 542.004)" width="1.404" height="1.404"/>
			<rect x="853.823" y="853.823" width="1.404" height="1.404"/>
			<rect x="852.162" y="854.782" transform="matrix(0.5 -0.866 0.866 0.5 -314.4391 1166.3434)" width="1.404" height="1.404"/>
			<rect x="850.243" y="854.782" transform="matrix(0.866 -0.5 0.5 0.866 -313.7369 540.0857)" width="1.404" height="1.404"/>
			<rect x="848.582" y="853.823" width="1.404" height="1.404"/>
			<rect x="847.623" y="852.162" transform="matrix(0.5 -0.866 0.866 0.5 -314.4391 1161.1024)" width="1.404" height="1.404"/>
			<rect x="847.623" y="850.243" transform="matrix(0.866 -0.5 0.5 0.866 -311.8186 538.1674)" width="1.404" height="1.404"/>
			<rect x="848.582" y="848.582" width="1.404" height="1.404"/>
			<rect x="850.243" y="847.623" transform="matrix(0.5 -0.866 0.866 0.5 -309.1981 1161.1024)" width="1.404" height="1.404"/>
			<rect x="852.162" y="847.623" transform="matrix(0.866 -0.5 0.5 0.866 -309.9003 540.0857)" width="1.404" height="1.404"/>
			<rect x="853.823" y="848.582" width="1.404" height="1.404"/>
			<polyline fill="none" stroke="#000000" stroke-width="0.0035" points="851.924,851.884 851.904,851.904 851.884,851.924 			"/>
			<polyline fill="none" stroke="#000000" stroke-width="0.0035" points="851.884,851.884 851.904,851.904 851.924,851.924 			"/>
		</g>
	</g>
	<g>
		<g>
			
				<rect x="856.135" y="850.916" transform="matrix(0.7071 -0.7071 0.7071 0.7071 -351.3415 855.5952)" width="1.977" height="1.977"/>
			
				<rect x="855.436" y="853.526" transform="matrix(0.9659 -0.2588 0.2588 0.9659 -191.9826 250.7759)" width="1.977" height="1.977"/>
			
				<rect x="853.526" y="855.436" transform="matrix(0.2588 -0.9659 0.9659 0.2588 -193.8931 1460.1628)" width="1.977" height="1.977"/>
			
				<rect x="850.916" y="856.135" transform="matrix(0.7071 -0.7071 0.7071 0.7071 -356.5612 853.4331)" width="1.977" height="1.977"/>
			
				<rect x="848.306" y="855.436" transform="matrix(0.9659 -0.2588 0.2588 0.9659 -192.72 248.9955)" width="1.977" height="1.977"/>
			
				<rect x="846.395" y="853.526" transform="matrix(0.2588 -0.9659 0.9659 0.2588 -197.3324 1451.8596)" width="1.977" height="1.977"/>
			
				<rect x="845.696" y="850.916" transform="matrix(0.7071 -0.7071 0.7071 0.7071 -354.3991 848.2134)" width="1.977" height="1.977"/>
			
				<rect x="846.395" y="848.306" transform="matrix(0.9659 -0.2588 0.2588 0.9659 -190.9397 248.2581)" width="1.977" height="1.977"/>
			
				<rect x="848.306" y="846.395" transform="matrix(0.2588 -0.9659 0.9659 0.2588 -189.0291 1448.4203)" width="1.977" height="1.977"/>
			
				<rect x="850.916" y="845.696" transform="matrix(0.7071 -0.7071 0.7071 0.7071 -349.1795 850.3755)" width="1.977" height="1.977"/>
			
				<rect x="853.526" y="846.395" transform="matrix(0.9659 -0.2588 0.2588 0.9659 -190.2022 250.0384)" width="1.977" height="1.977"/>
			
				<rect x="855.436" y="848.306" transform="matrix(0.2588 -0.9659 0.9659 0.2588 -185.5898 1456.7235)" width="1.977" height="1.977"/>
			<polyline fill="none" stroke="#000000" stroke-width="0.0049" points="851.939,851.885 851.904,851.904 851.87,851.924 			"/>
			<polyline fill="none" stroke="#000000" stroke-width="0.0049" points="851.885,851.87 851.904,851.904 851.924,851.939 			"/>
		</g>
	</g>
	<g>
		<g>
			<rect x="857.613" y="852.415" transform="matrix(0.866 -0.5 0.5 0.866 -311.8186 543.8912)" width="2.785" height="2.785"/>
			<rect x="855.71" y="855.71" width="2.785" height="2.785"/>
			<rect x="852.415" y="857.613" transform="matrix(0.5 -0.866 0.866 0.5 -317.017 1168.9213)" width="2.785" height="2.785"/>
			<rect x="848.609" y="857.613" transform="matrix(0.866 -0.5 0.5 0.866 -315.6241 540.0857)" width="2.785" height="2.785"/>
			<rect x="845.314" y="855.71" width="2.785" height="2.785"/>
			<rect x="843.411" y="852.415" transform="matrix(0.5 -0.866 0.866 0.5 -317.017 1158.5245)" width="2.785" height="2.785"/>
			<rect x="843.411" y="848.609" transform="matrix(0.866 -0.5 0.5 0.866 -311.8186 536.2802)" width="2.785" height="2.785"/>
			<rect x="845.314" y="845.314" width="2.785" height="2.785"/>
			<rect x="848.609" y="843.411" transform="matrix(0.5 -0.866 0.866 0.5 -306.6202 1158.5245)" width="2.785" height="2.785"/>
			<rect x="852.415" y="843.411" transform="matrix(0.866 -0.5 0.5 0.866 -308.0131 540.0857)" width="2.785" height="2.785"/>
			<rect x="855.71" y="845.314" width="2.785" height="2.785"/>
			<rect x="857.613" y="848.609" transform="matrix(0.5 -0.866 0.866 0.5 -306.6202 1168.9213)" width="2.785" height="2.785"/>
			<polyline fill="none" stroke="#000000" stroke-width="0.007" points="851.958,851.89 851.904,851.904 851.85,851.919 			"/>
			<polyline fill="none" stroke="#000000" stroke-width="0.007" points="851.89,851.85 851.904,851.904 851.919,851.958 			"/>
		</g>
	</g>
	<g>
		<g>
			
				<rect x="858.91" y="855.12" transform="matrix(0.9659 -0.2588 0.2588 0.9659 -192.4955 252.0143)" width="3.922" height="3.922"/>
			
				<rect x="855.12" y="858.91" transform="matrix(0.2588 -0.9659 0.9659 0.2588 -196.2855 1465.9387)" width="3.922" height="3.922"/>
			
				<rect x="849.943" y="860.298" transform="matrix(0.7071 -0.7071 0.7071 0.7071 -360.192 854.937)" width="3.922" height="3.922"/>
			
				<rect x="844.766" y="858.91" transform="matrix(0.9659 -0.2588 0.2588 0.9659 -193.9584 248.4826)" width="3.922" height="3.922"/>
			
				<rect x="840.976" y="855.12" transform="matrix(0.2588 -0.9659 0.9659 0.2588 -203.1082 1449.4672)" width="3.922" height="3.922"/>
			
				<rect x="839.589" y="849.943" transform="matrix(0.7071 -0.7071 0.7071 0.7071 -355.903 844.5826)" width="3.922" height="3.922"/>
			
				<rect x="840.976" y="844.766" transform="matrix(0.9659 -0.2588 0.2588 0.9659 -190.4267 247.0197)" width="3.922" height="3.922"/>
			
				<rect x="844.766" y="840.976" transform="matrix(0.2588 -0.9659 0.9659 0.2588 -186.6367 1442.6445)" width="3.922" height="3.922"/>
			
				<rect x="849.943" y="839.589" transform="matrix(0.7071 -0.7071 0.7071 0.7071 -345.5486 848.8716)" width="3.922" height="3.922"/>
			
				<rect x="855.12" y="840.976" transform="matrix(0.9659 -0.2588 0.2588 0.9659 -188.9638 250.5514)" width="3.922" height="3.922"/>
			
				<rect x="858.91" y="844.766" transform="matrix(0.2588 -0.9659 0.9659 0.2588 -179.814 1459.116)" width="3.922" height="3.922"/>
			
				<rect x="860.298" y="849.943" transform="matrix(0.7071 -0.7071 0.7071 0.7071 -349.8376 859.226)" width="3.922" height="3.922"/>
			<polyline fill="none" stroke="#000000" stroke-width="0.0098" points="851.983,851.904 851.904,851.904 851.826,851.904 			"/>
			<polyline fill="none" stroke="#000000" stroke-width="0.0098" points="851.904,851.826 851.904,851.904 851.904,851.983 			"/>
		</g>
	</g>
	<g>
		<g>
			<rect x="859.454" y="859.454" width="5.524" height="5.524"/>
			<rect x="852.917" y="863.229" transform="matrix(0.5 -0.866 0.866 0.5 -322.1308 1174.0352)" width="5.524" height="5.524"/>
			<rect x="845.368" y="863.229" transform="matrix(0.866 -0.5 0.5 0.866 -319.3677 540.0857)" width="5.524" height="5.524"/>
			<rect x="838.83" y="859.454" width="5.524" height="5.524"/>
			<rect x="835.056" y="852.917" transform="matrix(0.5 -0.866 0.866 0.5 -322.1308 1153.4108)" width="5.524" height="5.524"/>
			<rect x="835.056" y="845.368" transform="matrix(0.866 -0.5 0.5 0.866 -311.8186 532.5366)" width="5.524" height="5.524"/>
			<rect x="838.83" y="838.83" width="5.524" height="5.524"/>
			<rect x="845.368" y="835.056" transform="matrix(0.5 -0.866 0.866 0.5 -301.5064 1153.4108)" width="5.524" height="5.524"/>
			<rect x="852.917" y="835.056" transform="matrix(0.866 -0.5 0.5 0.866 -304.2696 540.0857)" width="5.524" height="5.524"/>
			<rect x="859.454" y="838.83" width="5.524" height="5.524"/>
			<rect x="863.229" y="845.368" transform="matrix(0.5 -0.866 0.866 0.5 -301.5064 1174.0352)" width="5.524" height="5.524"/>
			<rect x="863.229" y="852.917" transform="matrix(0.866 -0.5 0.5 0.866 -311.8186 547.6347)" width="5.524" height="5.524"/>
			<polyline fill="none" stroke="#000000" stroke-width="0.0138" points="852.011,851.933 851.904,851.904 851.798,851.876 			"/>
			<polyline fill="none" stroke="#000000" stroke-width="0.0138" points="851.933,851.798 851.904,851.904 851.876,852.011 			"/>
		</g>
	</g>
	<g>
		<g>
			
				<rect x="858.284" y="865.803" transform="matrix(0.2588 -0.9659 0.9659 0.2588 -201.0314 1477.3962)" width="7.78" height="7.78"/>
			
				<rect x="848.014" y="868.554" transform="matrix(0.7071 -0.7071 0.7071 0.7071 -367.3945 857.9204)" width="7.78" height="7.78"/>
			<rect x="837.744" y="865.803" transform="matrix(0.9659 -0.2588 0.2588 0.9659 -196.4151 247.465)" width="7.78" height="7.78"/>
			
				<rect x="830.226" y="858.284" transform="matrix(0.2588 -0.9659 0.9659 0.2588 -214.5658 1444.7213)" width="7.78" height="7.78"/>
			
				<rect x="827.474" y="848.014" transform="matrix(0.7071 -0.7071 0.7071 0.7071 -358.8864 837.3801)" width="7.78" height="7.78"/>
			<rect x="830.226" y="837.744" transform="matrix(0.9659 -0.2588 0.2588 0.9659 -189.4091 244.563)" width="7.78" height="7.78"/>
			
				<rect x="837.744" y="830.226" transform="matrix(0.2588 -0.9659 0.9659 0.2588 -181.8908 1431.1869)" width="7.78" height="7.78"/>
			
				<rect x="848.014" y="827.474" transform="matrix(0.7071 -0.7071 0.7071 0.7071 -338.3461 845.8882)" width="7.78" height="7.78"/>
			<rect x="858.284" y="830.226" transform="matrix(0.9659 -0.2588 0.2588 0.9659 -186.5072 251.569)" width="7.78" height="7.78"/>
			
				<rect x="865.803" y="837.744" transform="matrix(0.2588 -0.9659 0.9659 0.2588 -168.3564 1463.8618)" width="7.78" height="7.78"/>
			
				<rect x="868.554" y="848.014" transform="matrix(0.7071 -0.7071 0.7071 0.7071 -346.8542 866.4285)" width="7.78" height="7.78"/>
			
				<rect x="865.803" y="858.284" transform="matrix(0.9659 -0.2588 0.2588 0.9659 -193.5131 254.4709)" width="7.78" height="7.78"/>
			<polyline fill="none" stroke="#000000" stroke-width="0.0195" points="852.039,851.982 851.904,851.904 851.77,851.826 			"/>
			<polyline fill="none" stroke="#000000" stroke-width="0.0195" points="851.982,851.77 851.904,851.904 851.826,852.039 			"/>
		</g>
	</g>
	<g>
		<g>
			<rect x="853.913" y="874.369" transform="matrix(0.5 -0.866 0.866 0.5 -332.2753 1184.1796)" width="10.958" height="10.958"/>
			<rect x="838.937" y="874.369" transform="matrix(0.866 -0.5 0.5 0.866 -326.7939 540.0857)" width="10.958" height="10.958"/>
			<rect x="825.968" y="866.882" width="10.958" height="10.958"/>
			<rect x="818.481" y="853.913" transform="matrix(0.5 -0.866 0.866 0.5 -332.2753 1143.2662)" width="10.958" height="10.958"/>
			<rect x="818.481" y="838.937" transform="matrix(0.866 -0.5 0.5 0.866 -311.8186 525.1104)" width="10.958" height="10.958"/>
			<rect x="825.968" y="825.968" width="10.958" height="10.958"/>
			<rect x="838.937" y="818.481" transform="matrix(0.5 -0.866 0.866 0.5 -291.362 1143.2662)" width="10.958" height="10.958"/>
			<rect x="853.913" y="818.481" transform="matrix(0.866 -0.5 0.5 0.866 -296.8433 540.0857)" width="10.958" height="10.958"/>
			<rect x="866.882" y="825.968" width="10.958" height="10.958"/>
			<rect x="874.369" y="838.937" transform="matrix(0.5 -0.866 0.866 0.5 -291.362 1184.1796)" width="10.958" height="10.958"/>
			<rect x="874.369" y="853.913" transform="matrix(0.866 -0.5 0.5 0.866 -311.8186 555.061)" width="10.958" height="10.958"/>
			<rect x="866.882" y="866.882" width="10.958" height="10.958"/>
			<polyline fill="none" stroke="#000000" stroke-width="0.0274" points="852.059,852.059 851.904,851.904 851.749,851.749 			"/>
			<polyline fill="none" stroke="#000000" stroke-width="0.0274" points="852.059,851.749 851.904,851.904 851.749,852.059 			"/>
		</g>
	</g>
	<g>
		<g>
			
				<rect x="844.187" y="884.934" transform="matrix(0.7071 -0.7071 0.7071 0.7071 -381.6825 863.8387)" width="15.434" height="15.434"/>
			
				<rect x="823.814" y="879.475" transform="matrix(0.9659 -0.2588 0.2588 0.9659 -201.2884 245.4464)" width="15.434" height="15.434"/>
			
				<rect x="808.9" y="864.56" transform="matrix(0.2588 -0.9659 0.9659 0.2588 -237.2947 1435.3068)" width="15.434" height="15.434"/>
			
				<rect x="803.441" y="844.187" transform="matrix(0.7071 -0.7071 0.7071 0.7071 -364.8047 823.0921)" width="15.434" height="15.434"/>
			
				<rect x="808.9" y="823.814" transform="matrix(0.9659 -0.2588 0.2588 0.9659 -187.3905 239.6897)" width="15.434" height="15.434"/>
			
				<rect x="823.814" y="808.9" transform="matrix(0.2588 -0.9659 0.9659 0.2588 -172.4762 1408.458)" width="15.434" height="15.434"/>
			
				<rect x="844.187" y="803.441" transform="matrix(0.7071 -0.7071 0.7071 0.7071 -324.0581 839.9699)" width="15.434" height="15.434"/>
			
				<rect x="864.56" y="808.9" transform="matrix(0.9659 -0.2588 0.2588 0.9659 -181.6338 253.5876)" width="15.434" height="15.434"/>
			
				<rect x="879.475" y="823.814" transform="matrix(0.2588 -0.9659 0.9659 0.2588 -145.6276 1473.2765)" width="15.434" height="15.434"/>
			
				<rect x="884.934" y="844.187" transform="matrix(0.7071 -0.7071 0.7071 0.7071 -340.9359 880.7165)" width="15.434" height="15.434"/>
			
				<rect x="879.475" y="864.56" transform="matrix(0.9659 -0.2588 0.2588 0.9659 -195.5317 259.3443)" width="15.434" height="15.434"/>
			
				<rect x="864.56" y="879.475" transform="matrix(0.2588 -0.9659 0.9659 0.2588 -210.446 1500.1251)" width="15.434" height="15.434"/>
			<polyline fill="none" stroke="#000000" stroke-width="0.0386" points="852.059,852.172 851.904,851.904 851.75,851.637 			"/>
			<polyline fill="none" stroke="#000000" stroke-width="0.0386" points="852.172,851.75 851.904,851.904 851.637,852.059 			"/>
		</g>
	</g>
	<g>
		<g>
			<rect x="826.182" y="896.469" transform="matrix(0.866 -0.5 0.5 0.866 -341.5256 540.0857)" width="21.738" height="21.738"/>
			<rect x="800.455" y="881.616" width="21.738" height="21.738"/>
			<rect x="785.601" y="855.889" transform="matrix(0.5 -0.866 0.866 0.5 -352.3991 1123.1423)" width="21.738" height="21.738"/>
			<rect x="785.601" y="826.182" transform="matrix(0.866 -0.5 0.5 0.866 -311.8186 510.3787)" width="21.738" height="21.738"/>
			<rect x="800.455" y="800.455" width="21.738" height="21.738"/>
			<rect x="826.182" y="785.601" transform="matrix(0.5 -0.866 0.866 0.5 -271.2381 1123.1423)" width="21.738" height="21.738"/>
			<rect x="855.889" y="785.601" transform="matrix(0.866 -0.5 0.5 0.866 -282.1116 540.0857)" width="21.738" height="21.738"/>
			<rect x="881.616" y="800.455" width="21.738" height="21.738"/>
			<rect x="896.469" y="826.182" transform="matrix(0.5 -0.866 0.866 0.5 -271.2381 1204.3035)" width="21.738" height="21.738"/>
			<rect x="896.469" y="855.889" transform="matrix(0.866 -0.5 0.5 0.866 -311.8186 569.7927)" width="21.738" height="21.738"/>
			<rect x="881.616" y="881.616" width="21.738" height="21.738"/>
			<rect x="855.889" y="896.469" transform="matrix(0.5 -0.866 0.866 0.5 -352.3991 1204.3035)" width="21.738" height="21.738"/>
			<polyline fill="none" stroke="#000000" stroke-width="0.0543" points="852.017,852.324 851.904,851.904 851.792,851.484 			"/>
			<polyline fill="none" stroke="#000000" stroke-width="0.0543" points="852.324,851.792 851.904,851.904 851.484,852.017 			"/>
		</g>
	</g>
	<g>
		<g>
			
				<rect x="796.18" y="906.597" transform="matrix(0.9659 -0.2588 0.2588 0.9659 -210.9559 241.442)" width="30.618" height="30.618"/>
			
				<rect x="766.594" y="877.011" transform="matrix(0.2588 -0.9659 0.9659 0.2588 -282.3827 1416.6306)" width="30.618" height="30.618"/>
			
				<rect x="755.765" y="836.596" transform="matrix(0.7071 -0.7071 0.7071 0.7071 -376.545 794.7486)" width="30.618" height="30.618"/>
			
				<rect x="766.594" y="796.18" transform="matrix(0.9659 -0.2588 0.2588 0.9659 -183.3861 230.0222)" width="30.618" height="30.618"/>
			
				<rect x="796.18" y="766.594" transform="matrix(0.2588 -0.9659 0.9659 0.2588 -153.8002 1363.37)" width="30.618" height="30.618"/>
			
				<rect x="836.596" y="755.765" transform="matrix(0.7071 -0.7071 0.7071 0.7071 -295.7146 828.2296)" width="30.618" height="30.618"/>
			
				<rect x="877.011" y="766.594" transform="matrix(0.9659 -0.2588 0.2588 0.9659 -171.9664 257.592)" width="30.618" height="30.618"/>
			
				<rect x="906.597" y="796.18" transform="matrix(0.2588 -0.9659 0.9659 0.2588 -100.5396 1491.9525)" width="30.618" height="30.618"/>
			
				<rect x="917.426" y="836.596" transform="matrix(0.7071 -0.7071 0.7071 0.7071 -329.1956 909.06)" width="30.618" height="30.618"/>
			
				<rect x="906.597" y="877.011" transform="matrix(0.9659 -0.2588 0.2588 0.9659 -199.5361 269.0117)" width="30.618" height="30.618"/>
			
				<rect x="877.011" y="906.597" transform="matrix(0.2588 -0.9659 0.9659 0.2588 -229.1221 1545.2131)" width="30.618" height="30.618"/>
			
				<rect x="836.596" y="917.426" transform="matrix(0.7071 -0.7071 0.7071 0.7071 -410.026 875.579)" width="30.618" height="30.618"/>
			<polyline fill="none" stroke="#000000" stroke-width="0.0765" points="851.904,852.517 851.904,851.904 851.904,851.292 			"/>
			<polyline fill="none" stroke="#000000" stroke-width="0.0765" points="852.517,851.904 851.904,851.904 851.292,851.904 			"/>
		</g>
	</g>
	<g>
		<g>
			<rect x="749.842" y="910.844" width="43.123" height="43.123"/>
			<rect x="720.376" y="859.808" transform="matrix(0.5 -0.866 0.866 0.5 -392.3196 1083.2219)" width="43.123" height="43.123"/>
			<rect x="720.376" y="800.877" transform="matrix(0.866 -0.5 0.5 0.866 -311.8186 481.1549)" width="43.123" height="43.123"/>
			<rect x="749.842" y="749.842" width="43.123" height="43.123"/>
			<rect x="800.877" y="720.376" transform="matrix(0.5 -0.866 0.866 0.5 -231.3176 1083.2219)" width="43.123" height="43.123"/>
			<rect x="859.808" y="720.376" transform="matrix(0.866 -0.5 0.5 0.866 -252.8878 540.0857)" width="43.123" height="43.123"/>
			<rect x="910.844" y="749.842" width="43.123" height="43.123"/>
			<rect x="940.309" y="800.877" transform="matrix(0.5 -0.866 0.866 0.5 -231.3176 1244.2239)" width="43.123" height="43.123"/>
			<rect x="940.309" y="859.808" transform="matrix(0.866 -0.5 0.5 0.866 -311.8186 599.0165)" width="43.123" height="43.123"/>
			<rect x="910.844" y="910.844" width="43.123" height="43.123"/>
			<rect x="859.808" y="940.309" transform="matrix(0.5 -0.866 0.866 0.5 -392.3196 1244.2239)" width="43.123" height="43.123"/>
			<rect x="800.877" y="940.309" transform="matrix(0.866 -0.5 0.5 0.866 -370.7494 540.0857)" width="43.123" height="43.123"/>
			<polyline fill="none" stroke="#000000" stroke-width="0.1078" points="851.681,852.737 851.904,851.904 852.128,851.071 			"/>
			<polyline fill="none" stroke="#000000" stroke-width="0.1078" points="852.737,852.128 851.904,851.904 851.071,851.681 			"/>
		</g>
	</g>
	<g>
		<g>
			
				<rect x="682.672" y="901.709" transform="matrix(0.2588 -0.9659 0.9659 0.2588 -371.8253 1379.5823)" width="60.737" height="60.737"/>
			
				<rect x="661.19" y="821.536" transform="matrix(0.7071 -0.7071 0.7071 0.7071 -399.8345 738.5226)" width="60.737" height="60.737"/>
			
				<rect x="682.672" y="741.363" transform="matrix(0.9659 -0.2588 0.2588 0.9659 -175.4425 210.8446)" width="60.737" height="60.737"/>
			
				<rect x="741.363" y="682.672" transform="matrix(0.2588 -0.9659 0.9659 0.2588 -116.7518 1273.9275)" width="60.737" height="60.737"/>
			
				<rect x="821.536" y="661.19" transform="matrix(0.7071 -0.7071 0.7071 0.7071 -239.4887 804.9401)" width="60.737" height="60.737"/>
			
				<rect x="901.709" y="682.672" transform="matrix(0.9659 -0.2588 0.2588 0.9659 -152.7888 265.5356)" width="60.737" height="60.737"/>
			
				<rect x="960.399" y="741.363" transform="matrix(0.2588 -0.9659 0.9659 0.2588 -11.097 1529.0009)" width="60.737" height="60.737"/>
			
				<rect x="981.882" y="821.536" transform="matrix(0.7071 -0.7071 0.7071 0.7071 -305.9061 965.2859)" width="60.737" height="60.737"/>
			
				<rect x="960.399" y="901.709" transform="matrix(0.9659 -0.2588 0.2588 0.9659 -207.4797 288.1894)" width="60.737" height="60.737"/>
			
				<rect x="901.709" y="960.399" transform="matrix(0.2588 -0.9659 0.9659 0.2588 -266.1704 1634.6558)" width="60.737" height="60.737"/>
			
				<rect x="821.536" y="981.882" transform="matrix(0.7071 -0.7071 0.7071 0.7071 -466.252 898.8685)" width="60.737" height="60.737"/>
			
				<rect x="741.363" y="960.399" transform="matrix(0.9659 -0.2588 0.2588 0.9659 -230.1335 233.4984)" width="60.737" height="60.737"/>
			<polyline fill="none" stroke="#000000" stroke-width="0.1518" points="851.297,852.956 851.904,851.904 852.512,850.852 			"/>
			<polyline fill="none" stroke="#000000" stroke-width="0.1518" points="852.956,852.512 851.904,851.904 850.852,851.297 			"/>
		</g>
	</g>
	<g>
		<g>
			<rect x="590.988" y="867.583" transform="matrix(0.5 -0.866 0.866 0.5 -471.5111 1004.0305)" width="85.545" height="85.545"/>
			<rect x="590.988" y="750.68" transform="matrix(0.866 -0.5 0.5 0.866 -311.8186 423.1827)" width="85.545" height="85.545"/>
			<rect x="649.439" y="649.439" width="85.545" height="85.545"/>
			<rect x="750.68" y="590.988" transform="matrix(0.5 -0.866 0.866 0.5 -152.1262 1004.0305)" width="85.545" height="85.545"/>
			<rect x="867.583" y="590.988" transform="matrix(0.866 -0.5 0.5 0.866 -194.9156 540.0857)" width="85.545" height="85.545"/>
			<rect x="968.824" y="649.439" width="85.545" height="85.545"/>
			<rect x="1027.276" y="750.68" transform="matrix(0.5 -0.866 0.866 0.5 -152.1262 1323.4154)" width="85.545" height="85.545"/>
			<rect x="1027.276" y="867.583" transform="matrix(0.866 -0.5 0.5 0.866 -311.8186 656.9886)" width="85.545" height="85.545"/>
			<rect x="968.824" y="968.824" width="85.545" height="85.545"/>
			<rect x="867.583" y="1027.276" transform="matrix(0.5 -0.866 0.866 0.5 -471.5111 1323.4154)" width="85.545" height="85.545"/>
			<rect x="750.68" y="1027.276" transform="matrix(0.866 -0.5 0.5 0.866 -428.7216 540.0857)" width="85.545" height="85.545"/>
			<rect x="649.439" y="968.824" width="85.545" height="85.545"/>
			<polyline fill="none" stroke="#000000" stroke-width="0.2139" points="850.695,853.114 851.904,851.904 853.114,850.695 			"/>
			<polyline fill="none" stroke="#000000" stroke-width="0.2139" points="853.114,853.114 851.904,851.904 850.695,850.695 			"/>
		</g>
	</g>
	<g>
		<g>
			
				<rect x="473.578" y="791.661" transform="matrix(0.7071 -0.7071 0.7071 0.7071 -446.0348 626.9854)" width="120.486" height="120.486"/>
			
				<rect x="516.193" y="632.62" transform="matrix(0.9659 -0.2588 0.2588 0.9659 -159.6844 172.8013)" width="120.486" height="120.486"/>
			
				<rect x="632.62" y="516.193" transform="matrix(0.2588 -0.9659 0.9659 0.2588 -43.2578 1096.4972)" width="120.486" height="120.486"/>
			
				<rect x="791.661" y="473.578" transform="matrix(0.7071 -0.7071 0.7071 0.7071 -127.9514 758.7398)" width="120.486" height="120.486"/>
			
				<rect x="950.703" y="516.193" transform="matrix(0.9659 -0.2588 0.2588 0.9659 -114.7455 281.2937)" width="120.486" height="120.486"/>
			
				<rect x="1067.13" y="632.62" transform="matrix(0.2588 -0.9659 0.9659 0.2588 166.3333 1602.4949)" width="120.486" height="120.486"/>
			
				<rect x="1109.745" y="791.661" transform="matrix(0.7071 -0.7071 0.7071 0.7071 -259.7058 1076.8232)" width="120.486" height="120.486"/>
			
				<rect x="1067.13" y="950.703" transform="matrix(0.9659 -0.2588 0.2588 0.9659 -223.2378 326.2327)" width="120.486" height="120.486"/>
			
				<rect x="950.703" y="1067.13" transform="matrix(0.2588 -0.9659 0.9659 0.2588 -339.6644 1812.0859)" width="120.486" height="120.486"/>
			
				<rect x="791.661" y="1109.745" transform="matrix(0.7071 -0.7071 0.7071 0.7071 -577.7892 945.0688)" width="120.486" height="120.486"/>
			
				<rect x="632.62" y="1067.13" transform="matrix(0.9659 -0.2588 0.2588 0.9659 -268.1768 217.7403)" width="120.486" height="120.486"/>
			
				<rect x="516.193" y="950.703" transform="matrix(0.2588 -0.9659 0.9659 0.2588 -549.2555 1306.0883)" width="120.486" height="120.486"/>
			<polyline fill="none" stroke="#000000" stroke-width="0.3012" points="849.817,853.109 851.904,851.904 853.991,850.699 			"/>
			<polyline fill="none" stroke="#000000" stroke-width="0.3012" points="853.109,853.991 851.904,851.904 850.699,849.817 			"/>
		</g>
	</g>
	<g>
		<g>
			<rect x="334.315" y="651.103" transform="matrix(0.866 -0.5 0.5 0.866 -311.8186 308.1813)" width="169.699" height="169.699"/>
			<rect x="450.268" y="450.268" width="169.699" height="169.699"/>
			<rect x="651.103" y="334.315" transform="matrix(0.5 -0.866 0.866 0.5 4.9686 846.9357)" width="169.699" height="169.699"/>
			<rect x="883.007" y="334.315" transform="matrix(0.866 -0.5 0.5 0.866 -79.9142 540.0857)" width="169.699" height="169.699"/>
			<rect x="1083.842" y="450.268" width="169.699" height="169.699"/>
			<rect x="1199.794" y="651.103" transform="matrix(0.5 -0.866 0.866 0.5 4.9686 1480.5101)" width="169.699" height="169.699"/>
			<rect x="1199.794" y="883.007" transform="matrix(0.866 -0.5 0.5 0.866 -311.8186 771.9901)" width="169.699" height="169.699"/>
			<rect x="1083.842" y="1083.842" width="169.699" height="169.699"/>
			
				<rect x="883.007" y="1199.794" transform="matrix(0.5 -0.866 0.866 0.5 -628.6058 1480.5101)" width="169.699" height="169.699"/>
			<rect x="651.103" y="1199.794" transform="matrix(0.866 -0.5 0.5 0.866 -543.723 540.0857)" width="169.699" height="169.699"/>
			<rect x="450.268" y="1083.842" width="169.699" height="169.699"/>
			<rect x="334.315" y="883.007" transform="matrix(0.5 -0.866 0.866 0.5 -628.6058 846.9357)" width="169.699" height="169.699"/>
			<polyline fill="none" stroke="#000000" stroke-width="0.4242" points="848.626,852.783 851.904,851.904 855.183,851.026 			"/>
			<polyline fill="none" stroke="#000000" stroke-width="0.4242" points="852.783,855.183 851.904,851.904 851.026,848.626 			"/>
		</g>
	</g>
	<g>
		<g>
			
				<rect x="185.942" y="416.902" transform="matrix(0.9659 -0.2588 0.2588 0.9659 -128.4247 97.3336)" width="239.012" height="239.012"/>
			
				<rect x="416.902" y="185.942" transform="matrix(0.2588 -0.9659 0.9659 0.2588 102.5347 744.5229)" width="239.012" height="239.012"/>
			
				<rect x="732.398" y="101.405" transform="matrix(0.7071 -0.7071 0.7071 0.7071 93.3089 667.0908)" width="239.012" height="239.012"/>
			
				<rect x="1047.894" y="185.942" transform="matrix(0.9659 -0.2588 0.2588 0.9659 -39.2777 312.5534)" width="239.012" height="239.012"/>
			
				<rect x="1278.854" y="416.902" transform="matrix(0.2588 -0.9659 0.9659 0.2588 518.3076 1748.2874)" width="239.012" height="239.012"/>
			
				<rect x="1363.391" y="732.398" transform="matrix(0.7071 -0.7071 0.7071 0.7071 -168.0568 1298.0835)" width="239.012" height="239.012"/>
			
				<rect x="1278.854" y="1047.894" transform="matrix(0.9659 -0.2588 0.2588 0.9659 -254.4976 401.7004)" width="239.012" height="239.012"/>
			
				<rect x="1047.894" y="1278.854" transform="matrix(0.2588 -0.9659 0.9659 0.2588 -485.4569 2164.0603)" width="239.012" height="239.012"/>
			
				<rect x="732.398" y="1363.391" transform="matrix(0.7071 -0.7071 0.7071 0.7071 -799.0496 1036.7178)" width="239.012" height="239.012"/>
			
				<rect x="416.902" y="1278.854" transform="matrix(0.9659 -0.2588 0.2588 0.9659 -343.6445 186.4805)" width="239.012" height="239.012"/>
			
				<rect x="185.942" y="1047.894" transform="matrix(0.2588 -0.9659 0.9659 0.2588 -901.2298 1160.2958)" width="239.012" height="239.012"/>
			
				<rect x="101.405" y="732.398" transform="matrix(0.7071 -0.7071 0.7071 0.7071 -537.6838 405.7251)" width="239.012" height="239.012"/>
			<polyline fill="none" stroke="#000000" stroke-width="0.5975" points="847.124,851.904 851.904,851.904 856.685,851.904 			"/>
			<polyline fill="none" stroke="#000000" stroke-width="0.5975" points="851.904,856.685 851.904,851.904 851.904,847.124 			"/>
		</g>
	</g>
</g>
</svg>
